<svg xmlns="http://www.w3.org/2000/svg" xmlns:xlink="http://www.w3.org/1999/xlink" width="70" height="80" viewBox="0 0 70 80">
    <defs>
        <path id="a" d="M0 0h100v80H0z"/>
    </defs>
    <g fill="none" fill-rule="evenodd" transform="translate(-15)">
        <mask id="b" fill="#fff">
            <use xlink:href="#a"/>
        </mask>
        <g fill-rule="nonzero" mask="url(#b)">
            <path fill="#FFF" d="M17 32.42h66.23V65.1s.09 5.57-3.18 8.13c-3.27 2.56-10.25 4.68-10.25 4.68H30a16.47 16.47 0 0 1-8.93-4.77c-3.54-4-4-10.08-4-10.08L17 32.42z"/>
            <path fill="#5078FA" d="M30.88 9.4h38.17a13.84 13.84 0 0 1 13.84 13.84v9.18H17v-9.18A13.84 13.84 0 0 1 30.88 9.4z"/>
            <path fill="#464646" stroke="#464646" stroke-width=".8" d="M84.4 24.71A16.53 16.53 0 0 0 67.84 8.15h-1.28V1.77a1.275 1.275 0 1 0-2.55 0v6.38H36V1.77a1.275 1.275 0 1 0-2.55 0v6.38h-1.29A16.53 16.53 0 0 0 15.6 24.71v38.23A16.53 16.53 0 0 0 32.16 79.5h35.68A16.53 16.53 0 0 0 84.4 62.94V24.71zm-66.26 0c0-7.732 6.268-14 14-14h1.27v6.37a1.275 1.275 0 1 0 2.55 0v-6.39H64v6.37a1.275 1.275 0 1 0 2.55 0v-6.37h1.27c7.732 0 14 6.268 14 14v6.37H18.15l-.01-6.35zm63.71 38.23c0 7.732-6.268 14-14 14H32.16c-7.732 0-14-6.268-14-14V33.63h63.69v29.31z"/>
            <path fill="#464646" stroke="#464646" stroke-width=".8" d="M39.81 62.94h20.38a1.275 1.275 0 1 0 0-2.55H39.81a1.275 1.275 0 1 0 0 2.55zM39.81 50.19h20.38a1.275 1.275 0 1 0 0-2.55H39.81a1.275 1.275 0 1 0 0 2.55z"/>
        </g>
    </g>
</svg>
