<svg xmlns="http://www.w3.org/2000/svg" xmlns:xlink="http://www.w3.org/1999/xlink" width="61" height="79" viewBox="0 0 61 79">
    <defs>
        <path id="a" d="M0 0h100v80H0z"/>
    </defs>
    <g fill="none" fill-rule="evenodd" transform="translate(-20 -1)">
        <mask id="b" fill="#fff">
            <use xlink:href="#a"/>
        </mask>
        <g mask="url(#b)">
            <g transform="translate(21 2)">
                <path fill="#5078FA" fill-rule="nonzero" d="M5.34 4.58A3.42 3.42 0 0 0 1.92 8v65.58A3.42 3.42 0 0 0 5.34 77h45.32a3.42 3.42 0 0 0 3.42-3.42l-47.74-69h-1z"/>
                <path fill="#FFF" fill-rule="nonzero" d="M9.18.56a3.31 3.31 0 0 0-3.31 3.31v63.61a3.31 3.31 0 0 0 3.31 3.31h44a3.31 3.31 0 0 0 3.31-3.31V12.81L42.91.56H9.18z"/>
                <path stroke="#464646" stroke-linejoin="round" stroke-width="3.34" d="M53.09 73.58A3.42 3.42 0 0 1 49.67 77H4.34a3.42 3.42 0 0 1-3.42-3.42V8a3.42 3.42 0 0 1 3.42-3.42h1"/>
                <path fill="#464646" fill-rule="nonzero" d="M42.89.32l-.06 13.97h14.73z"/>
                <path stroke="#464646" stroke-linejoin="round" stroke-width="3.34" d="M57.56 13.39v55.34a3.37 3.37 0 0 1-3.39 3.35H9.25a3.37 3.37 0 0 1-3.39-3.35V4.35A3.37 3.37 0 0 1 9.25 1h34.48l13.83 12.39z"/>
                <path stroke="#464646" stroke-linecap="round" stroke-linejoin="round" stroke-width="3.34" d="M19.85 23.61h26.99M19.85 31.76h26.99M19.85 39.9h26.99M39.19 47.91h7.65M39.19 55.35h7.65M31.27 45.66v2.38M31.27 63.16v-2.38M27.83 59.87s5.55 2.89 6.74-1.62c1.28-4.87-6.6-3.36-6.74-7.34-.17-4.85 6.74-2.1 6.74-2.1M19.85 47.91h2.65"/>
                <circle cx="15.13" cy="23.77" r="1.67" fill="#464646" fill-rule="nonzero"/>
                <circle cx="15.13" cy="31.36" r="1.67" fill="#464646" fill-rule="nonzero"/>
                <circle cx="15.13" cy="39.75" r="1.67" fill="#464646" fill-rule="nonzero"/>
            </g>
        </g>
    </g>
</svg>
