<svg xmlns="http://www.w3.org/2000/svg" xmlns:xlink="http://www.w3.org/1999/xlink" width="100" height="80" viewBox="0 0 100 80">
    <defs>
        <path id="a" d="M0 0h100v80H0z"/>
    </defs>
    <g fill="none" fill-rule="evenodd">
        <mask id="b" fill="#fff">
            <use xlink:href="#a"/>
        </mask>
        <g fill-rule="nonzero" mask="url(#b)">
            <path fill="#FFF" d="M14.58 44.06a4.58 4.58 0 1 0 4.58 4.58 4.62 4.62 0 0 0-4.58-4.58zM10.62 73.44a1.64 1.64 0 0 0 1.67 1.67h4.58a1.64 1.64 0 0 0 1.67-1.67v-9h-7.92v9zM81.67 73.44a1.64 1.64 0 0 0 1.67 1.67h4.38a1.64 1.64 0 0 0 1.67-1.67v-9h-7.72v9zM65.42 20.73a12.32 12.32 0 0 1 11.67 8.54h4.58l-4-18.75A6.9 6.9 0 0 0 71 5.1H29a6.9 6.9 0 0 0-6.67 5.42l-4 18.75h35.42a12.32 12.32 0 0 1 11.67-8.54zm-19-7.92a2 2 0 0 1-2.08-2.08 2 2 0 0 1 2.08-2.08h7.08a2 2 0 0 1 2.08 2.08 2.24 2.24 0 0 1-2.08 2.08h-7.08z"/>
            <path fill="#FFF" d="M58.33 29.27H72.5a7.92 7.92 0 0 0-14.17 0z"/>
            <path fill="#5078FA" d="M86.46 33.44H13.54a9.34 9.34 0 0 0-9.37 9.38v17.5h91.66V42.81a9.34 9.34 0 0 0-9.37-9.37zm-71.87 24a8.75 8.75 0 1 1 8.75-8.75 8.8 8.8 0 0 1-8.76 8.71l.01.04zM61 55.73H39.17a2.085 2.085 0 0 1 0-4.17h21.66a2.14 2.14 0 0 1 2.29 2.08A2 2 0 0 1 61 55.73zm0-6.67H39.17a2.085 2.085 0 0 1 0-4.17h21.66A2.14 2.14 0 0 1 63.12 47 2 2 0 0 1 61 49.06zm0-6.87H39.17a2.085 2.085 0 0 1 0-4.17h21.66a2.14 2.14 0 0 1 2.29 2.08A2 2 0 0 1 61 42.19zM84.37 57.4a8.75 8.75 0 1 1 8.75-8.75 8.8 8.8 0 0 1-8.75 8.75z"/>
            <path fill="#FFF" d="M84.37 44.06A4.58 4.58 0 1 0 89 48.65a4.62 4.62 0 0 0-4.63-4.59z"/>
            <path fill="#464646" d="M86 29.27L81.87 9.48A11.15 11.15 0 0 0 71 .73H29a11.15 11.15 0 0 0-10.88 8.75L14 29.27A13.6 13.6 0 0 0 0 42.81V62.4a2 2 0 0 0 2.08 2.08h4.38v9a5.82 5.82 0 0 0 5.83 5.83h4.37a5.82 5.82 0 0 0 5.83-5.83v-9h54.59v9a5.82 5.82 0 0 0 5.83 5.83h4.37a5.82 5.82 0 0 0 5.83-5.83v-9h4.79a2 2 0 0 0 2.1-2.08V42.81a13.6 13.6 0 0 0-14-13.54zM22.29 10.52A6.9 6.9 0 0 1 29 5.1h42a6.9 6.9 0 0 1 6.67 5.42l4 18.75h-4.59a12.24 12.24 0 0 0-23.33 0H18.33l3.96-18.75zM72.5 29.27H58.33a7.92 7.92 0 0 1 14.17 0zm-54 44.17a1.64 1.64 0 0 1-1.67 1.67h-4.54a1.64 1.64 0 0 1-1.67-1.67v-9h7.92l-.04 9zm70.83 0a1.64 1.64 0 0 1-1.67 1.67h-4.33a1.64 1.64 0 0 1-1.67-1.67v-9h7.71l-.04 9zm6.5-13.17H4.17V42.81a9.34 9.34 0 0 1 9.38-9.37h72.91a9.34 9.34 0 0 1 9.38 9.38l-.01 17.45z"/>
            <path fill="#464646" d="M84.38 39.9a8.75 8.75 0 1 0 8.75 8.75 8.8 8.8 0 0 0-8.75-8.75zm0 13.33A4.58 4.58 0 1 1 89 48.65a4.62 4.62 0 0 1-4.62 4.58zM14.58 39.9a8.75 8.75 0 1 0 8.75 8.75 8.8 8.8 0 0 0-8.75-8.75zm0 13.33a4.58 4.58 0 1 1 4.58-4.58 4.62 4.62 0 0 1-4.58 4.58zM60.83 51.56H39.17a2.085 2.085 0 0 0 0 4.17H61a2 2 0 0 0 2.08-2.08 2.14 2.14 0 0 0-2.25-2.09zM60.83 44.9H39.17a2.085 2.085 0 0 0 0 4.17H61A2 2 0 0 0 63.12 47a2.14 2.14 0 0 0-2.29-2.1zM60.83 38H39.17a2.085 2.085 0 0 0 0 4.17H61a2 2 0 0 0 2.08-2.08A2.14 2.14 0 0 0 60.83 38zM55.63 10.73a2 2 0 0 0-2.08-2.08h-7.09a2 2 0 0 0-2.08 2.08 2 2 0 0 0 2.08 2.08h7.08a2.24 2.24 0 0 0 2.09-2.08z"/>
        </g>
    </g>
</svg>
