<svg xmlns="http://www.w3.org/2000/svg" xmlns:xlink="http://www.w3.org/1999/xlink" width="100" height="80" viewBox="0 0 100 80">
    <defs>
        <path id="a" d="M0 0h100v80H0z"/>
        <path id="c" d="M0 0h61v48H0z"/>
    </defs>
    <g fill="none" fill-rule="evenodd">
        <mask id="b" fill="#fff">
            <use xlink:href="#a"/>
        </mask>
        <g mask="url(#b)">
            <g fill-rule="nonzero" transform="translate(1 1)">
                <rect width="97.61" height="76.76" x=".2" y=".5" fill="#FFF" rx="11"/>
                <path fill="#464646" stroke="#464646" stroke-width="1.1" d="M15.38 7.66A1.63 1.63 0 1 1 13.75 6a1.6 1.6 0 0 1 1.63 1.66zM8.33 6A1.63 1.63 0 1 0 10 7.66 1.6 1.6 0 0 0 8.33 6zM97.8 7v64a6.53 6.53 0 0 1-6.5 6.5H6.7A6.53 6.53 0 0 1 .2 71V7A6.53 6.53 0 0 1 6.7.5h84.6A6.53 6.53 0 0 1 97.8 7zm-2.17 7.7H2.37V71a4.35 4.35 0 0 0 4.33 4.33h84.6A4.35 4.35 0 0 0 95.63 71V14.7zm0-7.7a4.35 4.35 0 0 0-4.33-4.33H6.7A4.35 4.35 0 0 0 2.37 7v5.53h93.26V7zM19.18 6a1.63 1.63 0 1 0 1.62 1.66A1.6 1.6 0 0 0 19.18 6z"/>
            </g>
            <g transform="translate(20 21)">
                <mask id="d" fill="#fff">
                    <use xlink:href="#c"/>
                </mask>
                <g fill-rule="nonzero" mask="url(#d)">
                    <path fill="#5078FA" d="M30.543 40.37c-.161 0-.321.022-.476.064-.929.251-1.497 1.159-1.3 2.075.197.915 1.092 1.526 2.047 1.395.954-.13 1.64-.957 1.57-1.89-.072-.934-.877-1.653-1.841-1.645zM46.494 16.797a33.45 33.45 0 0 1 4.996 3.742l6.826-6.625a43.057 43.057 0 0 0-7.003-5.217l-4.819 8.1z"/>
                    <path fill="#FFF" d="M9.48 20.09c.89.278 8.82-6.608 17.03-7.775 8.87-1.25 18.02 3.197 18.923 3.683l4.422-7.739c-1.177-.633-12.81-7.218-23.344-5.613C15.024 4.4 4.758 12.191 3.166 13.961l6.313 6.128z"/>
                    <path fill="#464646" d="M60.213 13.186c-16.408-15.927-43.011-15.927-59.42 0-.21.203-.328.479-.328.766 0 .288.118.564.328.767l7.887 7.656a1.14 1.14 0 0 0 1.574 0c5.358-5.23 12.648-8.161 20.246-8.141 1.43.001 2.857.106 4.27.313a1.11 1.11 0 0 0 1.22-.781c.08-.298.025-.614-.151-.87a1.115 1.115 0 0 0-.77-.468 31.88 31.88 0 0 0-4.569-.356c-7.803-.022-15.32 2.845-21.02 8.017l-6.314-6.128A39.88 39.88 0 0 1 9.644 9.13l1.3 2.19c.305.512.979.686 1.506.391.527-.296.707-.95.403-1.462L11.59 8.046a39.85 39.85 0 0 1 7.534-3.043l.677 2.45c.075.276.26.51.515.653.254.142.556.18.839.106a1.07 1.07 0 0 0 .805-1.29l-.683-2.476a41.098 41.098 0 0 1 8.107-1.012v2.51c0 .286.118.56.327.762.21.201.494.313.789.31.61 0 1.104-.48 1.104-1.072v-2.51c2.733.067 5.452.406 8.113 1.012l-.677 2.475c-.076.275-.037.568.11.815a1.1 1.1 0 0 0 .67.5c.284.074.586.035.84-.107.254-.142.44-.376.515-.651l.677-2.452c2.62.749 5.154 1.76 7.558 3.02l-4.453 7.508a30.276 30.276 0 0 0-3.148-1.397 1.14 1.14 0 0 0-.904.04c-.282.139-.49.386-.572.682a1.07 1.07 0 0 0 .677 1.279 28.658 28.658 0 0 1 9.76 6.211 1.14 1.14 0 0 0 1.574 0l7.87-7.65c.209-.203.327-.479.327-.767 0-.287-.118-.563-.328-.766zm-8.692 6.903a30.946 30.946 0 0 0-4.624-3.457l4.459-7.502a39.855 39.855 0 0 1 6.478 4.831l-6.313 6.128zM32.495 39.114l7.765-28.048a1.044 1.044 0 0 0-.11-.815 1.1 1.1 0 0 0-.67-.5 1.134 1.134 0 0 0-.853.078 1.079 1.079 0 0 0-.539.645l-7.747 28.065c-1.122.054-2.44.403-3.36 2.452-.271.7-.286 1.47-.043 2.179.467 1.532 1.916 2.585 3.562 2.587.47-.001.935-.088 1.372-.254 1.546-.599 2.499-2.117 2.337-3.725a3.542 3.542 0 0 0-1.714-2.664zm-.708 3.754a1.471 1.471 0 0 1-1.293.722 1.482 1.482 0 0 1-1.434-1.074 1.428 1.428 0 0 1 .696-1.623 1.522 1.522 0 0 1 1.795.232c.476.462.573 1.177.236 1.743z"/>
                </g>
            </g>
        </g>
    </g>
</svg>
