<svg xmlns="http://www.w3.org/2000/svg" xmlns:xlink="http://www.w3.org/1999/xlink" width="100" height="76" viewBox="0 0 100 76">
    <defs>
        <path id="a" d="M0 0h100v80H0z"/>
    </defs>
    <g fill="none" fill-rule="evenodd" transform="translate(0 -2)">
        <mask id="b" fill="#fff">
            <use xlink:href="#a"/>
        </mask>
        <g fill-rule="nonzero" mask="url(#b)">
            <path fill="#5078FA" d="M50.07 68.49a3 3 0 1 0 .05 6 3 3 0 0 0-.05-6zM76.22 28.68A55 55 0 0 1 84.41 35L95.6 23.81A70.78 70.78 0 0 0 84.12 15l-7.9 13.68z"/>
            <path fill="#FFF" d="M15.54 34.24C17 34.71 30 23.08 43.46 21.11 58 19 73 26.51 74.48 27.33l7.25-13.07c-1.93-1.07-21-12.19-38.27-9.48C24.63 7.74 7.8 20.9 5.19 23.89l10.35 10.35z"/>
            <path fill="#464646" d="M98.71 22.58C71.81-4.319 28.2-4.319 1.3 22.58a1.83 1.83 0 0 0 0 2.59L14.23 38.1a1.83 1.83 0 0 0 2.58 0A46.63 46.63 0 0 1 50 24.35a47.23 47.23 0 0 1 7 .53 1.82 1.82 0 0 0 2-1.32 1.82 1.82 0 0 0-1.51-2.26 50.76 50.76 0 0 0-7.49-.6 50.24 50.24 0 0 0-34.46 13.54L5.19 23.89a65.56 65.56 0 0 1 10.62-8.16l2.13 3.7a1.81 1.81 0 0 0 2.47.66 1.81 1.81 0 0 0 .66-2.47L19 13.9a64.24 64.24 0 0 1 12.35-5.14l1.11 4.14a1.81 1.81 0 0 0 2.22 1.28A1.81 1.81 0 0 0 36 12l-1.12-4.18a65.5 65.5 0 0 1 13.29-1.71v4.24A1.81 1.81 0 0 0 50 12.16c1 0 1.81-.81 1.81-1.81V6.11a65.57 65.57 0 0 1 13.3 1.71L64 12a1.81 1.81 0 0 0 1.28 2.22 1.81 1.81 0 0 0 2.22-1.28l1.11-4.14A64.3 64.3 0 0 1 81 13.9l-7.3 12.68a48.91 48.91 0 0 0-5.16-2.36 1.82 1.82 0 0 0-2.42 1.22 1.82 1.82 0 0 0 1.11 2.16 46.83 46.83 0 0 1 16 10.49 1.83 1.83 0 0 0 2.58 0l12.9-12.92a1.83 1.83 0 0 0 0-2.59zM84.46 34.24a50.88 50.88 0 0 0-7.58-5.84l7.31-12.67a65.52 65.52 0 0 1 10.62 8.16L84.46 34.24zM53.27 66.37L66 19a1.81 1.81 0 0 0-1.28-2.22A1.81 1.81 0 0 0 62.44 18l-12.7 47.4c-1.84.09-4 .68-5.51 4.14a5.52 5.52 0 0 0-.07 3.68A6.1 6.1 0 0 0 50 77.59a6.21 6.21 0 0 0 2.25-.43 6.13 6.13 0 0 0 3.83-6.29 6 6 0 0 0-2.81-4.5zm-1.16 6.34a2.42 2.42 0 0 1-2.12 1.22 2.44 2.44 0 1 1 2.12-1.22z"/>
        </g>
    </g>
</svg>
