<svg xmlns="http://www.w3.org/2000/svg" width="100" height="56" viewBox="0 0 100 56">
    <g fill="none" fill-rule="nonzero">
        <path fill="#FFF" d="M27.29 42.34H48.8V53.1H27.29z"/>
        <path fill="#5078FA" d="M3.39 42.34H24.9V53.1H3.39zM15.34 29.2h21.51v10.76H15.34zM51.2 16.05h21.51v10.76H51.2zM39.24 2.9h21.51v10.76H39.24z"/>
        <path fill="#FFF" d="M27.29 16.05H48.8v10.76H27.29zM39.24 29.2h21.51v10.76H39.24z"/>
        <path fill="#5078FA" d="M51.2 42.34h21.51V53.1H51.2z"/>
        <path fill="#FFF" d="M75.1 42.34h21.51V53.1H75.1z"/>
        <path fill="#5078FA" d="M63.15 29.2h21.51v10.76H63.15z"/>
        <path fill="#464646" stroke="#464646" stroke-width=".9" d="M36.85 13.66h-10a2 2 0 0 0-2 2V26.8H15a2 2 0 0 0-2 2V40H3a2 2 0 0 0-2 2v11.49a2 2 0 0 0 2 2h94a2 2 0 0 0 2-2V42a2 2 0 0 0-2-2H87V28.8a2 2 0 0 0-2-2H75V15.66a2 2 0 0 0-2-2H63V2.51a2 2 0 0 0-2-2H38.85a2 2 0 0 0-2 2v11.15zM3.39 42.34H24.9V53.1H3.39V42.34zm23.9 0H48.8V53.1H27.29V42.34zm23.9 0h21.52V53.1H51.2l-.01-10.76zm23.9 0h21.52V53.1H75.1l-.01-10.76zM15.34 29.2h21.51V40H15.34V29.2zm23.9 0h21.52V40H39.24V29.2zm23.9 0h21.52V40H63.15l-.01-10.8zM27.29 16H48.8v10.8H27.29V16zm23.9 0h21.52v10.8H51.2L51.19 16zm-12-13.15h21.57v10.81H39.24l-.05-10.81z"/>
    </g>
</svg>
