<svg xmlns="http://www.w3.org/2000/svg" xmlns:xlink="http://www.w3.org/1999/xlink" width="97" height="78" viewBox="0 0 97 78">
    <defs>
        <path id="a" d="M.151.494h99.01v79.012H.151z"/>
    </defs>
    <g fill="none" fill-rule="evenodd" transform="translate(-1 -1)">
        <mask id="b" fill="#fff">
            <use xlink:href="#a"/>
        </mask>
        <g mask="url(#b)">
            <path fill="#5078FA" d="M3.616 7.408h92.079V23.21H3.615z"/>
            <path fill="#464646" fill-rule="nonzero" d="M96.68 5.323l-20.099-.002V4.17c0-1.718-.077-3.111-1.685-3.111s-1.652 1.392-1.652 3.111v1.152H51.31l-.004-1.152c0-1.718-.07-3.111-1.654-3.111-1.583 0-1.653 1.392-1.653 3.111l.001 1.152H26.375V4.17c0-1.718-.02-3.111-1.627-3.111s-1.7 1.392-1.7 3.111v1.152l-20.13.002c-.712 0-1.287.573-1.287 1.284V77.66c0 .711.575 1.284 1.287 1.284h93.763c.713 0 1.287-.573 1.287-1.284V6.607c0-.71-.574-1.284-1.287-1.284zM23.068 8.62v1.152c0 1.718-.029 3.111 1.593 3.111 1.623 0 1.706-1.392 1.706-3.11V8.62H48v1.152c0 1.718.077 3.111 1.688 3.111 1.61 0 1.624-1.392 1.624-3.11V8.62h21.938v1.152c0 1.718.11 3.111 1.674 3.111 1.564 0 1.646-1.392 1.646-3.11V8.62h18.09v13.241H4.937V8.62h18.13zM4.946 75.625V25.177h89.706v50.448H4.946z"/>
            <path fill="#464646" fill-rule="nonzero" d="M30.658 36.286c-2.096 0-2.099 3.248 0 3.248 2.096 0 2.1-3.248 0-3.248zM40.23 36.286c-2.095 0-2.098 3.248 0 3.248 2.096 0 2.1-3.248 0-3.248zM49.803 36.286c-2.096 0-2.099 3.248 0 3.248 2.096 0 2.099-3.248 0-3.248zM59.375 36.286c-2.094 0-2.099 3.248 0 3.248 2.095 0 2.1-3.248 0-3.248zM68.948 36.286c-2.096 0-2.1 3.248 0 3.248 2.094 0 2.099-3.248 0-3.248zM78.52 36.286c-2.096 0-2.099 3.248 0 3.248 2.096 0 2.1-3.248 0-3.248zM21.086 43.505c-2.096 0-2.1 3.248 0 3.248 2.095 0 2.099-3.248 0-3.248zM30.658 43.505c-2.096 0-2.099 3.248 0 3.248 2.096 0 2.1-3.248 0-3.248zM40.23 43.505c-2.095 0-2.098 3.248 0 3.248 2.096 0 2.1-3.248 0-3.248zM49.803 43.505c-2.096 0-2.099 3.248 0 3.248 2.096 0 2.099-3.248 0-3.248zM59.375 43.505c-2.094 0-2.099 3.248 0 3.248 2.095 0 2.1-3.248 0-3.248zM68.948 43.505c-2.096 0-2.1 3.248 0 3.248 2.094 0 2.099-3.248 0-3.248zM78.52 43.505c-2.096 0-2.099 3.248 0 3.248 2.096 0 2.1-3.248 0-3.248zM21.086 50.724c-2.096 0-2.1 3.248 0 3.248 2.095 0 2.099-3.248 0-3.248zM30.658 50.724c-2.096 0-2.099 3.248 0 3.248 2.096 0 2.1-3.248 0-3.248zM40.23 50.724c-2.095 0-2.098 3.248 0 3.248 2.096 0 2.1-3.248 0-3.248zM49.803 50.724c-2.096 0-2.099 3.248 0 3.248 2.096 0 2.099-3.248 0-3.248zM59.375 50.724c-2.094 0-2.099 3.248 0 3.248 2.095 0 2.1-3.248 0-3.248zM68.948 50.724c-2.096 0-2.1 3.248 0 3.248 2.094 0 2.099-3.248 0-3.248zM78.52 50.724c-2.096 0-2.099 3.248 0 3.248 2.096 0 2.1-3.248 0-3.248zM21.086 57.943c-2.096 0-2.1 3.248 0 3.248 2.095 0 2.099-3.248 0-3.248zM30.658 57.943c-2.096 0-2.099 3.248 0 3.248 2.096 0 2.1-3.248 0-3.248zM40.23 57.943c-2.095 0-2.098 3.248 0 3.248 2.096 0 2.1-3.248 0-3.248zM49.803 57.943c-2.096 0-2.099 3.248 0 3.248 2.096 0 2.099-3.248 0-3.248zM59.375 57.943c-2.094 0-2.099 3.248 0 3.248 2.095 0 2.1-3.248 0-3.248zM68.948 57.943c-2.096 0-2.1 3.248 0 3.248 2.094 0 2.099-3.248 0-3.248zM78.52 57.943c-2.096 0-2.099 3.248 0 3.248 2.096 0 2.1-3.248 0-3.248z"/>
        </g>
    </g>
</svg>
