<svg xmlns="http://www.w3.org/2000/svg" xmlns:xlink="http://www.w3.org/1999/xlink" width="80" height="80" viewBox="0 0 80 80">
    <defs>
        <path id="a" d="M0 0h100v80H0z"/>
    </defs>
    <g fill="none" fill-rule="evenodd" transform="translate(-10)">
        <mask id="b" fill="#fff">
            <use xlink:href="#a"/>
        </mask>
        <g mask="url(#b)">
            <path fill="#5485F9" d="M50.757 2.779h27.052c5.523 0 10 4.477 10 10v26.125H50.757V2.78zM49.83 75.956H22.78c-5.523 0-10-4.477-10-10V39.831H49.83v36.125z"/>
            <path fill="#464646" fill-rule="nonzero" d="M26.673 0C17.468 0 10 7.468 10 16.673v46.315c0 9.205 7.468 16.673 16.673 16.673h46.315c9.205 0 16.673-7.468 16.673-16.673V16.673C89.661 7.468 82.193 0 72.988 0H26.673zm0 3.705h21.305v34.273H13.705V16.673A12.9 12.9 0 0 1 26.673 3.705zm25.01 0h21.305a12.9 12.9 0 0 1 12.968 12.968v21.305H51.683V3.705zM30.378 10.19c-1.023 0-1.852.83-1.852 1.853v6.484h-6.484a1.853 1.853 0 1 0 0 3.705h6.484v6.484a1.853 1.853 0 1 0 3.705 0v-6.484h6.484a1.853 1.853 0 1 0 0-3.705h-6.484v-6.484c0-1.023-.83-1.853-1.853-1.853zm30.568 8.337a1.853 1.853 0 1 0 0 3.705H77.62a1.853 1.853 0 1 0 0-3.705H60.946zm-47.24 23.157h34.272v34.273H26.673a12.9 12.9 0 0 1-12.968-12.968V41.683zm37.977 0h34.273v21.305a12.9 12.9 0 0 1-12.968 12.968H51.683V41.683zm-28.512 8.569c-.474 0-.941.188-1.303.55a1.835 1.835 0 0 0 0 2.605l5.905 5.905-5.905 5.905a1.835 1.835 0 0 0 0 2.605 1.835 1.835 0 0 0 2.605 0l5.905-5.905 5.906 5.905a1.835 1.835 0 0 0 2.605 0 1.835 1.835 0 0 0 0-2.605l-5.905-5.905 5.905-5.905a1.835 1.835 0 0 0 0-2.606 1.835 1.835 0 0 0-2.605 0l-5.906 5.906-5.905-5.906a1.838 1.838 0 0 0-1.302-.55zm37.775 2.576a1.853 1.853 0 1 0 0 3.705H77.62a1.853 1.853 0 1 0 0-3.705H60.946zm0 9.263a1.853 1.853 0 1 0 0 3.705H77.62a1.853 1.853 0 1 0 0-3.705H60.946z"/>
        </g>
    </g>
</svg>
