<svg xmlns="http://www.w3.org/2000/svg" xmlns:xlink="http://www.w3.org/1999/xlink" width="83" height="80" viewBox="0 0 83 80">
    <defs>
        <path id="a" d="M0 0h100v80H0z"/>
    </defs>
    <g fill="none" fill-rule="evenodd" transform="translate(-8)">
        <mask id="b" fill="#fff">
            <use xlink:href="#a"/>
        </mask>
        <g fill-rule="nonzero" mask="url(#b)">
            <g transform="translate(8 1)">
                <path fill="#FFF" d="M30.11 25.62a22.13 22.13 0 0 0-17.72 32.27 22.39 22.39 0 0 0 4 5.39 22.43 22.43 0 0 0 6.56 4.55 1.34 1.34 0 1 1-1.1 2.44c-.667-.287-1.283-.6-1.85-.94v4.76a2.17 2.17 0 0 0 2.18 2.17h5.42a2.17 2.17 0 0 0 1.54-.63 2.18 2.18 0 0 0 .64-1.54v-4.33l1.39.05H52.6a1.35 1.35 0 0 1 0 2.7h-2v1.6a2.17 2.17 0 0 0 2.18 2.17h5.44a2.17 2.17 0 0 0 1.54-.63 2.18 2.18 0 0 0 .64-1.54v-4.92l1-.29a22.28 22.28 0 0 0 11.42-8 22 22 0 0 0 2.85-21.24 22.51 22.51 0 0 0-3.64-6.12A29.9 29.9 0 0 1 67.11 36a33.57 33.57 0 0 1-5.7 1.76 1.34 1.34 0 1 1-.56-2.62 30.92 30.92 0 0 0 5.25-1.61 28 28 0 0 0 4.65-2.45l.11-.06.51-.36A20.78 20.78 0 0 0 77 24.88a15.92 15.92 0 0 0 2.18-5.3H62.76A7.12 7.12 0 0 0 58.52 21a7.27 7.27 0 0 0-2.64 3.64v.14c-.07.25-.13.51-.19.77a7.21 7.21 0 0 0-.11 1.29v4.66a1.34 1.34 0 1 1-2.68 0v-4.7c0-.425.03-.85.09-1.27h-2.72A3 3 0 0 1 47.6 28H32.78a2.94 2.94 0 0 1-2.67-2.38zm38.06 13.59a2.33 2.33 0 1 1-2.55 2.31 2.44 2.44 0 0 1 2.55-2.31zM80.63 53.94a2.38 2.38 0 0 0 1.66-.69A2.32 2.32 0 0 0 83 51.6v-6.53a2.31 2.31 0 0 0-.69-1.65 2.35 2.35 0 0 0-1.65-.69h-1.41c.34 1.645.51 3.32.51 5a24.43 24.43 0 0 1-.8 6.25l1.67-.04z"/>
                <path fill="#5078FA" d="M30.71 25.55h12.21s-.07-6.29-6.29-6.29-5.92 6.29-5.92 6.29z"/>
                <circle cx="46.49" cy="7.55" r="5.31" fill="#5078FA"/>
                <path fill="#464646" stroke="#464646" stroke-width=".7" d="M76.68 42.62h-1.35c.33 1.596.498 3.22.5 4.85a23.82 23.82 0 0 1-.83 6.1h1.63a2.32 2.32 0 0 0 1.62-.67c.46-.415.732-1 .75-1.62v-6.36a2.25 2.25 0 0 0-.67-1.61 2.29 2.29 0 0 0-1.61-.67l-.04-.02zM5.12 46.88a5.92 5.92 0 0 1-3-1.6 5.86 5.86 0 0 1-1.73-4.14v-.94a1.31 1.31 0 1 1 2.61 0v.94a3.27 3.27 0 0 0 .95 2.3c.369.37.822.644 1.32.8 1.641-12.007 11.882-20.967 24-21h.31a6.84 6.84 0 0 1 2.06-3.9 7.39 7.39 0 0 1 10.18 0 6.86 6.86 0 0 1 2.06 3.9h6.5a9.76 9.76 0 0 1 3.17-3.95 9.56 9.56 0 0 1 5.66-1.86H78.2l-.15 1.44a17.84 17.84 0 0 1-2.74 7.74 22.38 22.38 0 0 1-5 5.49 24.38 24.38 0 0 1 3.85 6.54c.17.44.33.89.48 1.34h2a4.89 4.89 0 0 1 3.46 1.44 4.89 4.89 0 0 1 1.44 3.46v6.36a4.89 4.89 0 0 1-1.44 3.47 4.89 4.89 0 0 1-3.46 1.44h-2.46a24.39 24.39 0 0 1-14.71 14.21v2.9a4.69 4.69 0 0 1-1.39 3.35A4.72 4.72 0 0 1 54.73 78h-5.3a4.72 4.72 0 0 1-3.35-1.39 4.72 4.72 0 0 1-1.39-3.35V71.7H29.72v1.58a4.69 4.69 0 0 1-1.39 3.35A4.72 4.72 0 0 1 25 78h-5.32a4.72 4.72 0 0 1-3.35-1.39 4.72 4.72 0 0 1-1.39-3.35v-6.34a25.42 25.42 0 0 1-2.75-2.38l-.06-.07a24.58 24.58 0 0 1-4.28-5.84A24 24 0 0 1 5.1 47.47v-.58l.02-.01zm36.57 22.18h7.61a1.32 1.32 0 0 1 0 2.63h-2v1.56a2.12 2.12 0 0 0 .63 1.5 2.11 2.11 0 0 0 1.5.62h5.31a2.11 2.11 0 0 0 1.5-.62 2.12 2.12 0 0 0 .63-1.5v-4.82l.93-.28a21.73 21.73 0 0 0 11.14-7.83 21.48 21.48 0 0 0 2.78-20.71 22 22 0 0 0-3.55-6 29.15 29.15 0 0 1-4.67 2.42 32.73 32.73 0 0 1-5.56 1.72 1.31 1.31 0 1 1-.55-2.55 30.15 30.15 0 0 0 5.12-1.57A27.26 27.26 0 0 0 67 31.27l.1-.06.5-.35a20.26 20.26 0 0 0 5.46-5.62 15.52 15.52 0 0 0 2.13-5.17h-16a6.94 6.94 0 0 0-4.14 1.35 7.09 7.09 0 0 0-2.5 3.58v.14c-.07.24-.13.5-.18.75a7 7 0 0 0-.1 1.25v4.57a1.31 1.31 0 1 1-2.61 0v-4.6c0-.415.03-.83.09-1.24h-2.68a2.88 2.88 0 0 1-2.6 2.37H30A2.87 2.87 0 0 1 27.42 26a21.58 21.58 0 0 0-17.28 31.42A21.83 21.83 0 0 0 14 62.67a21.87 21.87 0 0 0 6.4 4.44 1.305 1.305 0 1 1-1.07 2.38c-.62-.28-1.22-.583-1.8-.91v4.64a2.12 2.12 0 0 0 .63 1.5 2.11 2.11 0 0 0 1.5.62H25a2.11 2.11 0 0 0 1.5-.62 2.12 2.12 0 0 0 .63-1.5V69l1.35.05H41.69v.01zM64.53 39.2A2.27 2.27 0 1 1 62 41.46a2.38 2.38 0 0 1 2.53-2.26zM46.56 0a7.32 7.32 0 0 1 5.18 12.5A7.32 7.32 0 1 1 46.56 0zm3.33 4a4.71 4.71 0 1 0 0 6.66 4.71 4.71 0 0 0 0-6.66zM36.77 19.94a4.76 4.76 0 0 0-3.29 1.29 4.25 4.25 0 0 0-1.33 3.07v.26h9.21v-.26a4.21 4.21 0 0 0-1.33-3.07 4.72 4.72 0 0 0-3.29-1.29h.03z"/>
            </g>
        </g>
    </g>
</svg>
