<svg xmlns="http://www.w3.org/2000/svg" width="100" height="80" viewBox="0 0 100 80">
    <g fill="none" fill-rule="nonzero">
        <path fill="#FFF" d="M60.88 61.05l4.18 12.07 11.28-7.88-14.97-4.19zM72.44 18.94l15.07 4.39S96.29 3.74 85 1.87C73.71 0 72.44 18.94 72.44 18.94z"/>
        <path fill="#5078FA" d="M73.87 18.444l13.512 3.663L75.904 64.44l-13.512-3.664z"/>
        <path fill="#464646" stroke="#464646" stroke-width=".5" d="M82.68.51c-.31 0-.62 0-.92.09a9.45 9.45 0 0 0-7.83 6.91L60 59.87a1.41 1.41 0 0 0 0 .79l4.09 13.07-1.23 3.74a1.41 1.41 0 1 0 2.64.92l1.28-3.87 11-9a1.41 1.41 0 0 0 .44-.7L90.6 18.29l5.28 1.41a.86.86 0 0 1 .62 1.1L91 42.4a1.41 1.41 0 1 0 2.73.7l5.5-21.6a3.73 3.73 0 0 0-2.6-4.5l-5.32-1.45.84-3.08A9.49 9.49 0 0 0 85.5.82a9.2 9.2 0 0 0-2.82-.31zm.75 2.82a6.67 6.67 0 0 1 1.32.22 6.59 6.59 0 0 1 4.66 8.14l-.84 3.12-12.75-3.43.84-3.12a6.57 6.57 0 0 1 6.77-4.93zm-8.32 10.78l12.76 3.43-1.06 3.92-12.75-3.39 1.05-3.96zm-1.76 6.69l12.76 3.39-10.3 38.5-12.75-3.39 10.29-38.5zM63.5 62.29l10.34 2.82-7.52 6.2-2.82-9.02zM1.93 76.55a1.416 1.416 0 1 0 .26 2.82h53.52a1.41 1.41 0 1 0 0-2.82H1.93zm-.21-6.46a1.37 1.37 0 0 0-1.06 1.54 1.26 1.26 0 0 0 1.29 1.27h44.81A1.3 1.3 0 0 0 48 71.52a1.32 1.32 0 0 0-1.16-1.43H1.72z"/>
    </g>
</svg>
