<svg xmlns="http://www.w3.org/2000/svg" xmlns:xlink="http://www.w3.org/1999/xlink" width="48" height="80" viewBox="0 0 48 80">
    <defs>
        <path id="a" d="M0 0h100v80H0z"/>
    </defs>
    <g fill="none" fill-rule="evenodd" transform="translate(-26)">
        <mask id="b" fill="#fff">
            <use xlink:href="#a"/>
        </mask>
        <g fill-rule="nonzero" mask="url(#b)">
            <g transform="translate(26)">
                <path fill="#FFF" d="M15.19 54.85h17.17S32 63.43 24 63.43c-8 0-8.81-8.58-8.81-8.58z"/>
                <path fill="#5078FA" d="M2 54.62h44s-1.74-21.83-21.83-21.83S2 54.62 2 54.62z"/>
                <path fill="#464646" stroke="#464646" stroke-width=".7" d="M25.1 31.87V3.13h12.25a1.32 1.32 0 0 0 1.32-1.32A1.32 1.32 0 0 0 37.35.5H10.22a1.32 1.32 0 1 0 0 2.64h12.25v28.75c-12.113.792-21.526 10.86-21.5 23a1.33 1.33 0 0 0 1.32 1.34h11.9a9.68 9.68 0 0 0 19.19 0h12.34A1.33 1.33 0 0 0 47 54.84c.013-12.296-9.647-22.428-21.93-23l.03.03zm-1.32 30.06a7.07 7.07 0 0 1-6.93-5.74h13.87a7.07 7.07 0 0 1-6.94 5.74zM3.64 53.55C4.314 42.8 13.23 34.427 24 34.427S43.686 42.8 44.36 53.55H3.64z"/>
                <path fill="#464646" stroke="#464646" stroke-width=".7" d="M24 38.46a1.3 1.3 0 0 0 1.19 1.3 15.17 15.17 0 0 1 12.76 9.16 1.3 1.3 0 0 0 1.62.72 1.33 1.33 0 0 0 .79-1.78 17.81 17.81 0 0 0-14.92-10.72A1.33 1.33 0 0 0 24 38.46zM22.47 75.17v3a1.32 1.32 0 1 0 2.64 0v-8.36a1.32 1.32 0 1 0-2.64 0v5.36z"/>
                <rect width="11.07" height="2.63" x="4.616" y="67.006" fill="#464646" stroke="#464646" stroke-width=".7" rx="1.315" transform="rotate(-45 10.151 68.32)"/>
                <rect width="2.63" height="11.07" x="36.092" y="62.794" fill="#464646" stroke="#464646" stroke-width=".7" rx="1.315" transform="rotate(-45 37.407 68.329)"/>
            </g>
        </g>
    </g>
</svg>
