<svg xmlns="http://www.w3.org/2000/svg" xmlns:xlink="http://www.w3.org/1999/xlink" width="72" height="79" viewBox="0 0 72 79">
    <defs>
        <path id="a" d="M0 0h100v80H0z"/>
    </defs>
    <g fill="none" fill-rule="evenodd" transform="translate(-14)">
        <mask id="b" fill="#fff">
            <use xlink:href="#a"/>
        </mask>
        <g fill-rule="nonzero" mask="url(#b)">
            <path fill="#FFF" d="M14.26 78.65l30.75-30.76 31.05 31.05z"/>
            <path fill="#5078FA" d="M45 7v19h13v8l3 3h22l-6-11 6-9H68v-7l-3-3z"/>
            <path fill="#464646" stroke="#464646" d="M78.72 26.6l5.73-9.13a1.28 1.28 0 0 0-1.07-2H69.19v-5.2a4.67 4.67 0 0 0-4.67-4.67H46.59V1.33A1.33 1.33 0 0 0 45.25 0a1.33 1.33 0 0 0-1.33 1.33v45.74L15.17 76.2a1.32 1.32 0 1 0 1.87 1.86l9.53-9.72 7 4.93a3.87 3.87 0 0 0 4.53 0l6.4-4.47a1.3 1.3 0 0 1 1.53 0l6.4 4.47a4.13 4.13 0 0 0 4.6 0l6.73-4.73 9.4 9.52a1.32 1.32 0 0 0 1.87 0 1.32 1.32 0 0 0 0-1.86L46.32 47.07V27.93H57v5.2a4.67 4.67 0 0 0 4.67 4.67h21.4c.47 0 .904-.257 1.13-.67a1.21 1.21 0 0 0-.07-1.33l-5.41-9.2zm-23 44.47a1.3 1.3 0 0 1-1.53 0l-6.4-4.47a4.13 4.13 0 0 0-4.6 0l-6.4 4.47a1.3 1.3 0 0 1-1.53 0l-6.67-4.67 16.66-16.93L62.12 66.6l-6.4 4.47zM46.59 8.2h17.86a2 2 0 0 1 2 2v15.07H46.59V8.2zm19.86 19.73L60 33.53c0-.13-.07-.27-.07-.4v-5.2h6.52zm-4.27 7.2l6-5.2a2.56 2.56 0 0 0 .87-1.73V18.07h11.8l-4.93 7.8a1.32 1.32 0 0 0 0 1.4l4.93 7.87-18.67-.01z"/>
        </g>
    </g>
</svg>
