<svg xmlns="http://www.w3.org/2000/svg" xmlns:xlink="http://www.w3.org/1999/xlink" width="151" height="111" viewBox="0 0 151 111">
    <defs>
        <path id="a" d="M.748.395h200v120h-200z"/>
    </defs>
    <g fill="none" fill-rule="evenodd" transform="translate(-25 -5)">
        <mask id="b" fill="#fff">
            <use xlink:href="#a"/>
        </mask>
        <g mask="url(#b)">
            <path fill="#5078FA" d="M35.514 57.83h33v35h-33zM82.514 57.83h33v35h-33zM129.514 57.83h33v35h-33z"/>
            <g fill="#464646" fill-rule="nonzero" transform="translate(25.514 15.83)">
                <path d="M44.318 40H10.682C9.752 40 9 40.745 9 41.667v36.666C9 79.255 9.752 80 10.682 80h33.636c.93 0 1.682-.745 1.682-1.667V41.667c0-.922-.752-1.667-1.682-1.667zm-1.682 36.667H12.364V43.333h30.272v33.334zM91.318 40H57.682c-.93 0-1.682.745-1.682 1.667v36.666c0 .922.752 1.667 1.682 1.667h33.636c.93 0 1.682-.745 1.682-1.667V41.667c0-.922-.752-1.667-1.682-1.667zm-1.682 36.667H59.364V43.333h30.272v33.334zM138.325 40h-33.636c-.93 0-1.682.745-1.682 1.667v36.666c0 .922.752 1.667 1.682 1.667h33.636c.93 0 1.682-.745 1.682-1.667V41.667c0-.922-.752-1.667-1.682-1.667zm-1.682 36.667H106.37V43.333h30.273v33.334z"/>
                <rect width="3" height="3" x="49" y="42" rx="1"/>
                <rect width="3" height="3" x="96" y="42" rx="1"/>
                <rect width="3" height="3" x="49" y="49" rx="1"/>
                <rect width="3" height="3" x="96" y="49" rx="1"/>
                <rect width="3" height="3" x="49" y="56" rx="1"/>
                <rect width="3" height="3" x="96" y="56" rx="1"/>
                <rect width="3" height="3" x="49" y="62" rx="1"/>
                <rect width="3" height="3" x="96" y="62" rx="1"/>
                <rect width="3" height="3" x="49" y="69" rx="1"/>
                <rect width="3" height="3" x="96" y="69" rx="1"/>
                <rect width="3" height="3" x="49" y="77" rx="1"/>
                <rect width="3" height="3" x="96" y="77" rx="1"/>
                <path d="M44.318 20H10.682C9.752 20 9 20.76 9 21.7v13.6c0 .94.752 1.7 1.682 1.7h33.636c.93 0 1.682-.76 1.682-1.7V21.7c0-.94-.752-1.7-1.682-1.7zm-1.682 13.6H12.364V23.4h30.272v10.2zM91.318 20H57.682c-.93 0-1.682.76-1.682 1.7v13.6c0 .94.752 1.7 1.682 1.7h33.636c.93 0 1.682-.76 1.682-1.7V21.7c0-.94-.752-1.7-1.682-1.7zm-1.682 13.6H59.364V23.4h30.272v10.2zM138.325 20h-33.636c-.93 0-1.682.76-1.682 1.7v13.6c0 .94.752 1.7 1.682 1.7h33.636c.93 0 1.682-.76 1.682-1.7V21.7c0-.94-.752-1.7-1.682-1.7zm-1.682 13.6H106.37V23.4h30.273v10.2z"/>
                <rect width="3" height="3" x="16" y="27" rx="1"/>
                <rect width="3" height="3" x="22" y="27" rx="1"/>
                <rect width="3" height="3" x="29" y="27" rx="1"/>
                <rect width="3" height="3" x="36" y="27" rx="1"/>
                <rect width="3" height="3" x="62" y="27" rx="1"/>
                <rect width="3" height="3" x="109.007" y="27" rx="1"/>
                <rect width="3" height="3" x="69" y="27" rx="1"/>
                <rect width="3" height="3" x="116.007" y="27" rx="1"/>
                <rect width="3" height="3" x="76" y="27" rx="1"/>
                <rect width="3" height="3" x="123.007" y="27" rx="1"/>
                <rect width="3" height="3" x="82" y="27" rx="1"/>
                <rect width="3" height="3" x="129.007" y="27" rx="1"/>
                <path d="M141.667 11.667H97.16C95.768 5.005 86.095 0 74 0S52.232 5.005 50.84 11.667H8.333C3.738 11.667 0 15.405 0 20v60c0 4.595 3.738 8.333 8.333 8.333h20v8.334H25V100h100v-3.333h-3.333v-8.334h20c4.595 0 8.333-3.738 8.333-8.333V20c0-4.595-3.738-8.333-8.333-8.333zm-23.334 85H31.667v-8.334h86.666v8.334zM146.667 80c0 2.757-2.244 5-5 5H8.333c-2.756 0-5-2.243-5-5V20c0-2.757 2.244-5 5-5h44c.922 0 1.667-.745 1.667-1.667 0-5.42 9.158-10 20-10s20 4.58 20 10c0 .922.745 1.667 1.667 1.667h46c2.756 0 5 2.243 5 5v60z"/>
            </g>
            <g stroke="#464646">
                <path fill="#464646" fill-rule="nonzero" stroke-width="1.55" d="M157.783 14.338l7.04-6.525a.971.971 0 0 0 .265-1.026c-.132-.373-.44-.606-.836-.606h-20.105l.045 21.896 1.76.599-.044-6.181h18.344a.905.905 0 0 0 .836-.606c.132-.373.044-.792-.264-1.025l-7.041-6.526zm-11.831 6.293V8.046h16.011l-6.073 5.593c-.176.186-.308.42-.308.7 0 .279.088.512.308.698l6.073 5.594h-16.011z"/>
                <g stroke-linecap="round" stroke-linejoin="round">
                    <path stroke-width="1.67" d="M151.43 11.16v.851"/>
                    <path stroke-width="1.5" d="M151.54 18.082v-.85"/>
                    <path stroke-width="1.67" d="M150.31 16.576c.173.421.624.716 1.24.652.591-.062 1.172-.429 1.172-1.233 0-1.474-2.361-1.202-2.411-2.626-.03-.87.576-1.205 1.189-1.224.608-.018.951.237 1.222.67"/>
                </g>
            </g>
            <g stroke="#464646">
                <path fill="#464646" fill-rule="nonzero" stroke-width="1.55" d="M42.746 14.338l-7.041-6.525a.971.971 0 0 1-.264-1.026c.132-.373.44-.606.836-.606h20.104l-.044 21.896-1.76.599.044-6.181H36.277a.905.905 0 0 1-.836-.606c-.132-.373-.044-.792.264-1.025l7.041-6.526zm11.831 6.293V8.046H38.565l6.074 5.593c.176.186.308.42.308.7 0 .279-.088.512-.308.698l-6.074 5.594h16.012z"/>
                <g stroke-linecap="round" stroke-linejoin="round">
                    <path stroke-width="1.67" d="M49.1 11.16v.851"/>
                    <path stroke-width="1.5" d="M48.988 18.082v-.85"/>
                    <path stroke-width="1.67" d="M50.218 16.576c-.172.421-.623.716-1.239.652-.591-.062-1.172-.429-1.172-1.233 0-1.474 2.36-1.202 2.41-2.626.031-.87-.576-1.205-1.188-1.224-.608-.018-.951.237-1.222.67"/>
                </g>
            </g>
            <path fill="#464646" d="M88.217 26.057h21v3.34h-21z"/>
            <g fill-rule="nonzero">
                <path fill="#FFF" d="M96.58 23.778c.544 0 1.088.222 1.511.666l.793.834a.327.327 0 0 0 .473 0l.79-.83c.846-.888 2.17-.888 3.017 0a2.353 2.353 0 0 1 0 3.215c-1.35 1.416-2.696 2.834-4.045 4.25l-4.046-4.253a2.354 2.354 0 0 1 0-3.216 2.075 2.075 0 0 1 1.508-.666z"/>
                <path fill="#464646" stroke="#464646" stroke-width="2" d="M96.64 22.84c-.718 0-1.435.286-1.98.857a3.001 3.001 0 0 0 0 4.114l4.28 4.501a.327.327 0 0 0 .474 0l4.283-4.498a3 3 0 0 0 0-4.114 2.722 2.722 0 0 0-3.963 0l-.555.579-.555-.582a2.733 2.733 0 0 0-1.983-.857zm0 .64c.544 0 1.088.222 1.511.666l.793.834a.327.327 0 0 0 .473 0l.79-.83c.846-.889 2.171-.889 3.018 0a2.353 2.353 0 0 1 0 3.215c-1.35 1.416-2.697 2.834-4.046 4.25l-4.045-4.254a2.354 2.354 0 0 1 0-3.215 2.075 2.075 0 0 1 1.507-.667z"/>
            </g>
        </g>
    </g>
</svg>
