<svg xmlns="http://www.w3.org/2000/svg" xmlns:xlink="http://www.w3.org/1999/xlink" width="66" height="80" viewBox="0 0 66 80">
    <defs>
        <path id="a" d="M0 0h100v80H0z"/>
    </defs>
    <g fill="none" fill-rule="evenodd" transform="translate(-17)">
        <mask id="b" fill="#fff">
            <use xlink:href="#a"/>
        </mask>
        <g mask="url(#b)">
            <g transform="translate(17)">
                <path fill="#5078FA" fill-rule="nonzero" d="M62 3.53a.88.88 0 0 0-1 .06c-3.77 2.35-9.36 5.09-14.43 5.09a26.52 26.52 0 0 1-13.64-3.53 26.87 26.87 0 0 1-13.66 3.52c-5.07 0-10.66-2.74-14.43-5.09a1 1 0 0 0-.52-.13.92.92 0 0 0-.41.12.88.88 0 0 0-.5.8v47.89a14.85 14.85 0 0 0 8.06 13.18l21.45 11 21.46-11.13a14.7 14.7 0 0 0 8.06-13.18V4.37a1 1 0 0 0-.44-.84z"/>
                <path fill="#464646" fill-rule="nonzero" stroke="#464646" stroke-width=".7" d="M63.3 1.37a3.13 3.13 0 0 0-3.51.13c-2.86 1.83-8.45 4.7-13.13 4.7a23.37 23.37 0 0 1-12.88-3.53 1.4 1.4 0 0 0-1.43 0 24.63 24.63 0 0 1-13 3.39c-4.68 0-10.27-3-13.13-4.7a3.73 3.73 0 0 0-3.51-.13A3.52 3.52 0 0 0 .89 4.36v47.77a17.3 17.3 0 0 0 9.49 15.53L32.35 79a1.68 1.68 0 0 0 1.3 0l22-11.35a17.45 17.45 0 0 0 9.49-15.53V4.37a3.18 3.18 0 0 0-1.84-3zm-.78 50.76a14.7 14.7 0 0 1-8.06 13.18L33 76.4l-21.45-11a14.85 14.85 0 0 1-8.06-13.18V4.37a.88.88 0 0 1 .5-.8.92.92 0 0 1 .41-.12 1 1 0 0 1 .52.13c3.77 2.35 9.36 5.09 14.43 5.09A26.87 26.87 0 0 0 33 5.15a26.52 26.52 0 0 0 13.65 3.52c5.07 0 10.66-2.74 14.43-5.09a.88.88 0 0 1 1-.06 1 1 0 0 1 .48.84l-.04 47.77z"/>
                <path fill="#FFF" fill-rule="nonzero" d="M28.26 39.67l.03 3.46 2.62 2.65-2.55 2.58 2.62 2.65-2.48 2.61.02 2.86 4.37 3.95 4.22-4-.29-15.9z"/>
                <path fill="#FFF" fill-rule="nonzero" d="M32.9 19.67a10.29 10.29 0 0 0-9.32 6.23 9.5 9.5 0 0 0-.82 4.1A10.24 10.24 0 1 0 32.9 19.67zm.1 9.85a2.72 2.72 0 1 1-.04-5.44 2.72 2.72 0 0 1 .04 5.44z"/>
                <path stroke="#464646" stroke-linecap="round" stroke-linejoin="round" stroke-width="3" d="M36.82 40.42l.29 15.9-4.22 4.01-4.37-3.95-.02-2.86 2.48-2.61-2.62-2.65 2.55-2.58-2.62-2.66-.03-3.45"/>
                <path stroke="#464646" stroke-width="3" d="M22.76 29.91a10.25 10.25 0 1 0 .82-4.12 9.5 9.5 0 0 0-.82 4.12z"/>
                <circle cx="32.931" cy="26.693" r="2.72" stroke="#464646" stroke-width="2" transform="rotate(-.5 32.931 26.693)"/>
            </g>
        </g>
    </g>
</svg>
