<svg xmlns="http://www.w3.org/2000/svg" xmlns:xlink="http://www.w3.org/1999/xlink" width="66" height="80" viewBox="0 0 66 80">
    <defs>
        <path id="a" d="M0 0h100v80H0z"/>
    </defs>
    <g fill="none" fill-rule="evenodd" transform="translate(-17)">
        <mask id="b" fill="#fff">
            <use xlink:href="#a"/>
        </mask>
        <g fill-rule="nonzero" mask="url(#b)">
            <path fill="#5078FA" d="M79 3.53a.88.88 0 0 0-1 .06c-3.77 2.35-9.36 5.09-14.43 5.09a26.52 26.52 0 0 1-13.64-3.53 26.87 26.87 0 0 1-13.66 3.52c-5.07 0-10.66-2.74-14.43-5.09a1 1 0 0 0-.52-.13.92.92 0 0 0-.41.12.88.88 0 0 0-.5.8v47.89a14.85 14.85 0 0 0 8.06 13.18l21.45 11 21.46-11.13a14.7 14.7 0 0 0 8.06-13.18V4.37a1 1 0 0 0-.44-.84z"/>
            <path fill="#FFF" d="M42.94 36A10.54 10.54 0 1 0 53.4 46.56c.017-5.8-4.66-10.521-10.46-10.56zm0 13.5a3 3 0 1 1 3-3 3 3 0 0 1-3 3.03v-.03z"/>
            <path fill="#FFF" d="M58.41 31.81h-17l.59 2.71h.94a11.72 11.72 0 0 1 10.63 6.28h4.84v-8.99zM42.94 45.05a1.51 1.51 0 1 0 1.5 1.51 1.52 1.52 0 0 0-1.5-1.51zM56.1 53.87a3 3 0 1 0 6 0 3 3 0 0 0-6 0z"/>
            <path fill="#464646" stroke="#464646" stroke-width="1.8" d="M42.68 43.51a3 3 0 1 0 0 6 3 3 0 0 0 0-6zm0 4.56a1.51 1.51 0 1 1 1.5-1.51 1.52 1.52 0 0 1-1.5 1.5v.01zm26.57 2a.75.75 0 0 0-.94-.47l-3.17 1.12-2.36-6.49a.73.73 0 0 0-.69-.47h-2.45V31.08a.81.81 0 0 0-.81-.77h-17.7L38.95 22a.78.78 0 0 0-.73-.56h-4.54a.73.73 0 0 0-.73.77.76.76 0 0 0 .73.77h3.94l2.66 11.78a12 12 0 1 0 14.35 11.8 14.12 14.12 0 0 0-.69-4.3h4.2v7.18a4.48 4.48 0 1 0 1.59 0v-4.17h1.93L64 51.93a.73.73 0 0 0 .69.47.54.54 0 0 0 .26 0l3.82-1.4a.72.72 0 0 0 .47-1l.01.07zM42.68 57.1a10.54 10.54 0 1 1 10.45-10.54c.022 5.795-4.655 10.512-10.45 10.54zM53.3 40.75a11.72 11.72 0 0 0-10.63-6.28h-.94l-.56-2.71h17v8.95l-4.87.04zm8.53 13.12a3 3 0 1 1-6 0 3 3 0 0 1 6 0z"/>
            <path fill="#464646" stroke="#464646" stroke-width=".7" d="M80.3 1.37a3.13 3.13 0 0 0-3.51.13c-2.86 1.83-8.45 4.7-13.13 4.7a23.37 23.37 0 0 1-12.88-3.53 1.4 1.4 0 0 0-1.43 0 24.63 24.63 0 0 1-13 3.39c-4.68 0-10.27-3-13.13-4.7a3.73 3.73 0 0 0-3.51-.13 3.52 3.52 0 0 0-1.82 3.13v47.77a17.3 17.3 0 0 0 9.49 15.53L49.35 79a1.68 1.68 0 0 0 1.3 0l22-11.35a17.45 17.45 0 0 0 9.49-15.53V4.37a3.18 3.18 0 0 0-1.84-3zm-.78 50.76a14.7 14.7 0 0 1-8.06 13.18L50 76.4l-21.45-11a14.85 14.85 0 0 1-8.06-13.18V4.37a.88.88 0 0 1 .5-.8.92.92 0 0 1 .41-.12 1 1 0 0 1 .52.13c3.77 2.35 9.36 5.09 14.43 5.09A26.87 26.87 0 0 0 50 5.15a26.52 26.52 0 0 0 13.65 3.52c5.07 0 10.66-2.74 14.43-5.09a.88.88 0 0 1 1-.06 1 1 0 0 1 .48.84l-.04 47.77z"/>
        </g>
    </g>
</svg>
