<svg xmlns="http://www.w3.org/2000/svg" xmlns:xlink="http://www.w3.org/1999/xlink" width="80" height="80" viewBox="0 0 80 80">
    <defs>
        <path id="a" d="M.151 0h99.01v80H.151z"/>
    </defs>
    <g fill="none" fill-rule="evenodd" transform="translate(-9)">
        <mask id="b" fill="#fff">
            <use xlink:href="#a"/>
        </mask>
        <g mask="url(#b)">
            <path fill="#5078FA" d="M49.203 7.48h-32.91L12.494 14l3.8 8.11 32.91 1.038zM49.203 29.53h32.91l3.8 6.522-3.8 8.11-32.91 1.038z"/>
            <path fill="#464646" fill-rule="nonzero" stroke="#464646" stroke-width=".3" d="M88.5 36.133l-4.62-8c-.264-.533-.792-.8-1.32-.8H50.745V1.6c0-.933-.66-1.6-1.584-1.6s-1.584.667-1.584 1.6v2.933H15.76c-.528 0-1.056.267-1.32.8l-4.62 8a1.715 1.715 0 0 0 0 1.6l4.62 8c.264.534.792.8 1.32.8h31.816v43.734H35.43c-.924 0-1.584.666-1.584 1.6v7.6h-1.452c-.924 0-1.584.666-1.584 1.6 0 .933.66 1.6 1.584 1.6h33.399c.924 0 1.585-.667 1.585-1.6 0-.934-.66-1.6-1.585-1.6h-1.452v-7.6c0-.934-.66-1.6-1.584-1.6H50.613V46.533h31.815c.528 0 1.056-.266 1.32-.8l4.62-8c.529-.4.529-1.066.133-1.6zm-71.947-15.6l-3.696-6.4 3.696-6.4h31.024v12.8H16.553zM61.306 70.8v6h-24.29v-6h24.29zm20.462-27.467H50.745v-12.8h31.023l3.696 6.4-3.696 6.4z"/>
        </g>
    </g>
</svg>
