<svg xmlns="http://www.w3.org/2000/svg" xmlns:xlink="http://www.w3.org/1999/xlink" width="66" height="79" viewBox="0 0 66 79">
    <defs>
        <path id="a" d="M0 0h100v80H0z"/>
    </defs>
    <g fill="none" fill-rule="evenodd" transform="translate(-17)">
        <mask id="b" fill="#fff">
            <use xlink:href="#a"/>
        </mask>
        <g fill-rule="nonzero" mask="url(#b)">
            <path fill="#5078FA" d="M79 2.91a.88.88 0 0 0-1 .06C74.31 5.31 68.72 8 63.65 8A26.6 26.6 0 0 1 50 4.53 27 27 0 0 1 36.35 8c-5.07 0-10.66-2.69-14.44-5a1 1 0 0 0-.52-.13A.92.92 0 0 0 21 3a.88.88 0 0 0-.5.79v47.67a14.79 14.79 0 0 0 8.05 13.14L50 75.52l21.45-11.05a14.64 14.64 0 0 0 8.06-13.13V3.75a1 1 0 0 0-.51-.84z"/>
            <path fill="#FFF" stroke="#464646" stroke-width="3.34" d="M59 21.21a11.43 11.43 0 0 0-8.07 3.32l-.9.89-.89-.89c-4.381-4.314-11.387-4.398-15.87-.19a.85.85 0 0 0-.29.18 11.26 11.26 0 0 0 0 16L34.45 42 49.4 56.86a.86.86 0 0 0 1.2 0L65.55 42 67 40.55a11.25 11.25 0 0 0 0-16 11.38 11.38 0 0 0-4.12-2.6.86.86 0 0 0-.42-.15 11.57 11.57 0 0 0-3.46-.59z"/>
            <path fill="#464646" stroke="#464646" stroke-width=".7" d="M80.3.66a3.14 3.14 0 0 0-3.51.13c-2.86 1.82-8.45 4.68-13.13 4.68A23.43 23.43 0 0 1 50.78 2a1.41 1.41 0 0 0-1.43 0 24.69 24.69 0 0 1-13 3.38c-4.68 0-10.27-3-13.13-4.68a3.74 3.74 0 0 0-3.51-.13 3.5 3.5 0 0 0-1.82 3.12v47.55a17.23 17.23 0 0 0 9.49 15.47L49.35 78a1.69 1.69 0 0 0 1.3 0l22-11.31a17.38 17.38 0 0 0 9.49-15.47V3.65A3.17 3.17 0 0 0 80.3.66zm-.78 50.58a14.64 14.64 0 0 1-8.06 13.13L50 75.43 28.55 64.51a14.79 14.79 0 0 1-8.06-13.13V3.65a.88.88 0 0 1 .5-.79.92.92 0 0 1 .41-.12 1 1 0 0 1 .52.13c3.77 2.34 9.36 5.07 14.43 5.07A27 27 0 0 0 50 4.43a26.6 26.6 0 0 0 13.65 3.51c5.07 0 10.66-2.73 14.43-5.07a.88.88 0 0 1 1-.06 1 1 0 0 1 .48.84l-.04 47.59z"/>
        </g>
    </g>
</svg>
