<svg xmlns="http://www.w3.org/2000/svg" xmlns:xlink="http://www.w3.org/1999/xlink" width="62" height="76" viewBox="0 0 62 76">
    <defs>
        <path id="a" d="M0 0h100v80H0z"/>
    </defs>
    <g fill="none" fill-rule="evenodd" transform="translate(-18 -2)">
        <mask id="b" fill="#fff">
            <use xlink:href="#a"/>
        </mask>
        <g fill-rule="nonzero" mask="url(#b)">
            <path fill="#FFF" d="M19.67 56.91V15.38l4.53-5.15h9.06l3.53-5.76H49l4 5.99 8.9.08 3.95 3.99V45.7l-5.8 1.39L53 45.17l-.4 17.42H23.66z"/>
            <path fill="#464646" stroke="#464646" stroke-width="1.8" d="M60.39 9.57h-6.75v.75a6.75 6.75 0 0 0-6.75-6.75h-7.5a6.75 6.75 0 0 0-6.7 6h-6.8a6.75 6.75 0 0 0-6.75 6.75v40.5a6.75 6.75 0 0 0 6.75 6.75h34.5a6.75 6.75 0 0 0 6.75-6.75v-40.5a6.75 6.75 0 0 0-6.75-6.75zm-26.25.75c0-2.9 2.35-5.25 5.25-5.25h7.5c2.9 0 5.25 2.35 5.25 5.25v3.75h-18v-3.75zm31.5 46.5c0 2.9-2.35 5.25-5.25 5.25h-34.5a5.25 5.25 0 0 1-5.25-5.25v-40.5c0-2.9 2.35-5.25 5.25-5.25h6.75v3.75c0 .414.336.75.75.75h19.5a.75.75 0 0 0 .75-.75v-3.75h6.75c2.9 0 5.25 2.35 5.25 5.25v40.5z"/>
            <path fill="#464646" stroke="#464646" stroke-width="1.8" d="M56.92 26.82H29.36a.75.75 0 1 0 0 1.5h27.56a.75.75 0 1 0 0-1.5zM38.92 49.32h-9.56a.75.75 0 1 0 0 1.5h9.56a.75.75 0 1 0 0-1.5zM56.92 38.07H29.36a.75.75 0 1 0 0 1.5h27.56a.75.75 0 1 0 0-1.5z"/>
            <path fill="#5078FA" d="M78 45.54a.37.37 0 0 0-.4 0 12.6 12.6 0 0 1-6.07 2.14 11.15 11.15 0 0 1-5.74-1.48 11.29 11.29 0 0 1-5.74 1.48A12.6 12.6 0 0 1 54 45.56a.41.41 0 0 0-.22-.05.39.39 0 0 0-.17 0 .37.37 0 0 0-.21.34V66a6.24 6.24 0 0 0 3.39 5.54l9 4.61 9-4.66A6.18 6.18 0 0 0 78.22 66V45.89a.41.41 0 0 0-.22-.35z"/>
            <path fill="#464646" stroke="#464646" d="M78.58 44.63a1.31 1.31 0 0 0-1.48.05 11.83 11.83 0 0 1-5.52 2 9.82 9.82 0 0 1-5.41-1.48.59.59 0 0 0-.6 0 10.35 10.35 0 0 1-5.47 1.43c-2 0-4.32-1.26-5.52-2a1.57 1.57 0 0 0-1.48-.05 1.48 1.48 0 0 0-.77 1.32V66a7.27 7.27 0 0 0 4 6.53l9.24 4.77a.71.71 0 0 0 .55 0l9.24-4.77a7.33 7.33 0 0 0 4-6.53V45.89a1.34 1.34 0 0 0-.78-1.26zM78.25 66a6.18 6.18 0 0 1-3.39 5.54l-9 4.66-9-4.61A6.24 6.24 0 0 1 53.44 66V45.89a.37.37 0 0 1 .21-.34.39.39 0 0 1 .17 0 .41.41 0 0 1 .22.05 12.6 12.6 0 0 0 6.07 2.14 11.29 11.29 0 0 0 5.74-1.48 11.15 11.15 0 0 0 5.74 1.48 12.6 12.6 0 0 0 6.07-2.14.37.37 0 0 1 .4 0 .41.41 0 0 1 .2.35L78.25 66z"/>
            <path fill="#464646" stroke="#464646" d="M65.85 77.47a.63.63 0 0 1-.34-.07l-9.24-4.77A7.45 7.45 0 0 1 52.2 66V45.89a1.63 1.63 0 0 1 .8-1.44 1.71 1.71 0 0 1 1.63.06 11.66 11.66 0 0 0 5.44 2 10.23 10.23 0 0 0 5.39-1.4.73.73 0 0 1 .76 0 9.67 9.67 0 0 0 5.33 1.46c2.27 0 4.93-1.63 5.44-2a1.46 1.46 0 0 1 1.62-.06c.534.254.868.8.85 1.39V66a7.45 7.45 0 0 1-4.07 6.66l-9.2 4.74a.63.63 0 0 1-.34.07zm-12-32.9a1.4 1.4 0 0 0-.62.14 1.32 1.32 0 0 0-.68 1.19V66a7.16 7.16 0 0 0 3.91 6.4l9.24 4.77a.57.57 0 0 0 .41 0l9.23-4.77A7.16 7.16 0 0 0 79.2 66V45.89a1.2 1.2 0 0 0-.68-1.13 1.17 1.17 0 0 0-1.32 0c-.53.34-3.26 2-5.61 2a10 10 0 0 1-5.49-1.51.45.45 0 0 0-.44 0 10.53 10.53 0 0 1-5.55 1.45 11.94 11.94 0 0 1-5.59-2 1.35 1.35 0 0 0-.72-.14l.05.01zm12 31.77l-9.09-4.64a6.42 6.42 0 0 1-3.47-5.7V45.89a.51.51 0 0 1 .29-.47.54.54 0 0 1 .24-.07.56.56 0 0 1 .28.07 12.67 12.67 0 0 0 6 2.12 11.17 11.17 0 0 0 5.66-1.46h.16a11 11 0 0 0 5.66 1.46 12.65 12.65 0 0 0 6-2.12.51.51 0 0 1 .57 0 .56.56 0 0 1 .26.47V66a6.3 6.3 0 0 1-3.47 5.67l-9.09 4.67zm-12-30.68h-.1a.22.22 0 0 0-.13.21V66a6.13 6.13 0 0 0 3.31 5.41L65.85 76l9-4.63A6 6 0 0 0 78.11 66V45.89a.26.26 0 0 0-.13-.23.23.23 0 0 0-.24 0 12.94 12.94 0 0 1-6.15 2.16 11.36 11.36 0 0 1-5.74-1.46 11.53 11.53 0 0 1-5.74 1.46A12.93 12.93 0 0 1 54 45.69a.26.26 0 0 0-.18-.04l.03.01z"/>
            <path fill="#FFF" stroke="#464646" stroke-width="2.5" d="M68.46 55.32a3.33 3.33 0 0 0-2.35 1l-.26.26-.26-.26a3.33 3.33 0 0 0-4.59-.09l-.08.05a3.28 3.28 0 0 0 0 4.66l.44.43 4.35 4.32a.25.25 0 0 0 .35 0l4.35-4.32.44-.43a3.28 3.28 0 0 0 0-4.66 3.32 3.32 0 0 0-1.2-.76.25.25 0 0 0-.12 0 3.37 3.37 0 0 0-1.07-.2z"/>
        </g>
    </g>
</svg>
