<svg xmlns="http://www.w3.org/2000/svg" xmlns:xlink="http://www.w3.org/1999/xlink" width="66" height="80" viewBox="0 0 66 80">
    <defs>
        <path id="a" d="M0 0h100v80H0z"/>
    </defs>
    <g fill="none" fill-rule="evenodd" transform="translate(-17)">
        <mask id="b" fill="#fff">
            <use xlink:href="#a"/>
        </mask>
        <g fill-rule="nonzero" mask="url(#b)">
            <path fill="#464646" stroke="#464646" stroke-width="1.5" d="M80.3 1.51a3.14 3.14 0 0 0-3.51.13c-2.86 1.82-8.45 4.68-13.13 4.68a23.43 23.43 0 0 1-12.88-3.51 1.41 1.41 0 0 0-1.43 0 24.69 24.69 0 0 1-13 3.38c-4.68 0-10.27-3-13.13-4.68a3.74 3.74 0 0 0-3.51-.13 3.5 3.5 0 0 0-1.83 3.12v47.58a17.23 17.23 0 0 0 9.49 15.47l22 11.31a1.69 1.69 0 0 0 1.3 0l22-11.31a17.38 17.38 0 0 0 9.49-15.47V4.5a3.17 3.17 0 0 0-1.86-2.99zm-.78 50.58a14.64 14.64 0 0 1-8.06 13.13L50 76.27 28.55 65.35a14.79 14.79 0 0 1-8.06-13.13V4.5a.88.88 0 0 1 .51-.8.92.92 0 0 1 .41-.12 1 1 0 0 1 .52.13c3.77 2.34 9.36 5.07 14.43 5.07A27 27 0 0 0 50 5.28a26.6 26.6 0 0 0 13.65 3.51c5.07 0 10.66-2.73 14.43-5.07a.88.88 0 0 1 1-.06 1 1 0 0 1 .48.84l-.04 47.59z"/>
            <path fill="#5078FA" d="M79 3.8a.88.88 0 0 0-1 .06c-3.69 2.34-9.28 5.07-14.35 5.07A26.6 26.6 0 0 1 50 5.42a27 27 0 0 1-13.65 3.51c-5.07 0-10.66-2.73-14.43-5.07a1 1 0 0 0-.52-.13.92.92 0 0 0-.41.12.88.88 0 0 0-.5.79v47.72a14.79 14.79 0 0 0 8.06 13.13L50 76.41l21.45-11.05a14.64 14.64 0 0 0 8.06-13.13V4.64A1 1 0 0 0 79 3.8z"/>
            <path fill="#FFF" d="M32.29 42a2.29 2.29 0 1 0 2.29 2.29A2.31 2.31 0 0 0 32.29 42zM30.31 56.72a.82.82 0 0 0 .83.83h2.29a.82.82 0 0 0 .83-.83v-4.48h-4l.05 4.48zM65.83 56.72a.82.82 0 0 0 .83.83h2.19a.82.82 0 0 0 .83-.83v-4.48h-3.85v4.48zM57.71 30.36a6.16 6.16 0 0 1 5.83 4.27h2.29l-2-9.37a3.45 3.45 0 0 0-3.33-2.71h-21a3.45 3.45 0 0 0-3.33 2.71l-2 9.38h17.7a6.16 6.16 0 0 1 5.84-4.28zm-9.48-4a1.04 1.04 0 0 1 0-2.08h3.54a1 1 0 0 1 1 1 1.12 1.12 0 0 1-1 1l-3.54.08z"/>
            <path fill="#FFF" d="M54.17 34.64h7.08a4 4 0 0 0-7.08 0z"/>
            <path fill="#5078FA" d="M68.23 36.72H31.77a4.67 4.67 0 0 0-4.69 4.69v8.75h45.84v-8.75a4.67 4.67 0 0 0-4.69-4.69zm-35.94 12a4.38 4.38 0 1 1 4.38-4.37 4.4 4.4 0 0 1-4.38 4.35v.02zm23.23-.83H44.58a1.04 1.04 0 0 1 0-2.08h10.84a1.07 1.07 0 0 1 1.15 1 1 1 0 0 1-1.05 1.05v.03zm0-3.33H44.58a1.04 1.04 0 0 1 0-2.08h10.84a1.07 1.07 0 0 1 1.15 1 1 1 0 0 1-1.05 1.05v.03zm0-3.44H44.58a1.04 1.04 0 0 1 0-2.08h10.84a1.07 1.07 0 0 1 1.15 1 1 1 0 0 1-1.05 1.05v.03zm11.67 7.6a4.38 4.38 0 1 1 4.38-4.37 4.4 4.4 0 0 1-4.38 4.35v.02z"/>
            <path fill="#FFF" d="M67.19 42a2.29 2.29 0 1 0 2.29 2.29A2.31 2.31 0 0 0 67.19 42z"/>
            <path fill="#464646" d="M68 34.64l-2.08-9.9a5.58 5.58 0 0 0-5.42-4.37h-21a5.58 5.58 0 0 0-5.42 4.37L32 34.64a6.8 6.8 0 0 0-7 6.77v9.79a1 1 0 0 0 1 1h2.19v4.48a2.91 2.91 0 0 0 2.92 2.92h2.19a2.91 2.91 0 0 0 2.92-2.92v-4.44h27.32v4.48a2.91 2.91 0 0 0 2.92 2.92h2.19a2.91 2.91 0 0 0 2.92-2.92v-4.48H74a1 1 0 0 0 1-1v-9.83a6.8 6.8 0 0 0-7-6.77zm-31.85-9.38a3.45 3.45 0 0 1 3.33-2.71h21a3.45 3.45 0 0 1 3.33 2.71l2 9.37h-2.27a6.12 6.12 0 0 0-11.67 0h-17.7l1.98-9.37zm25.1 9.37h-7.08a4 4 0 0 1 7.08 0zm-27 22.08a.82.82 0 0 1-.83.83h-2.27a.82.82 0 0 1-.83-.83v-4.47h4l-.07 4.47zm35.42 0a.82.82 0 0 1-.83.83h-2.17a.82.82 0 0 1-.83-.83v-4.47h3.85l-.02 4.47zm3.25-6.55H27.08v-8.75a4.67 4.67 0 0 1 4.69-4.69h36.46a4.67 4.67 0 0 1 4.69 4.69v8.75z"/>
            <path fill="#464646" d="M67.19 39.95a4.37 4.37 0 1 0 4.38 4.37 4.4 4.4 0 0 0-4.38-4.37zm0 6.67a2.29 2.29 0 1 1 2.29-2.29 2.31 2.31 0 0 1-2.29 2.28v.01zM32.29 39.95a4.37 4.37 0 1 0 4.37 4.37 4.4 4.4 0 0 0-4.37-4.37zm0 6.67a2.29 2.29 0 1 1 2.29-2.29 2.31 2.31 0 0 1-2.29 2.28v.01zM55.42 45.78H44.58a1.04 1.04 0 0 0 0 2.08h10.94a1 1 0 0 0 1-1 1.07 1.07 0 0 0-1.1-1.08zM55.42 42.45H44.58a1.04 1.04 0 0 0 0 2.08h10.94a1 1 0 0 0 1-1 1.07 1.07 0 0 0-1.1-1.08zM55.42 39H44.58a1.04 1.04 0 0 0 0 2.08h10.94a1 1 0 0 0 1-1 1.07 1.07 0 0 0-1.1-1.08zM52.81 25.36a1 1 0 0 0-1-1h-3.58a1.04 1.04 0 0 0 0 2.08h3.54a1.12 1.12 0 0 0 1.04-1.08z"/>
        </g>
    </g>
</svg>
