<svg xmlns="http://www.w3.org/2000/svg" xmlns:xlink="http://www.w3.org/1999/xlink" width="62" height="80" viewBox="0 0 62 80">
    <defs>
        <path id="a" d="M0 0h100v80H0z"/>
    </defs>
    <g fill="none" fill-rule="evenodd" transform="translate(-19)">
        <mask id="b" fill="#fff">
            <use xlink:href="#a"/>
        </mask>
        <g fill-rule="nonzero" stroke="#464646" stroke-width=".15" mask="url(#b)">
            <path fill="#FFF" d="M20.91 1.33h58.03v76.95H20.91z"/>
            <path fill="#5078FA" d="M27.49 7.82h44.52v12.47H27.49z"/>
            <path fill="#464646" d="M19.62 79.78V-.13h60.76v79.91H19.62zM77.1 3.15H22.82v73.53h54.36V3.15h-.08zm-3.2 19.16H26v-16h48v16h-.1zM70.71 9.54H29.2v9.58h41.6V9.54h-.09zM34 27.1a6.39 6.39 0 1 1-6.39 6.39A6.36 6.36 0 0 1 34 27.1zm0 9.58a3.19 3.19 0 1 0-3.19-3.19A3.18 3.18 0 0 0 34 36.68zm0 6.39a6.39 6.39 0 1 1-6.39 6.39 6.36 6.36 0 0 1 6.39-6.4v.01zm0 9.58a3.19 3.19 0 1 0-3.19-3.19A3.18 3.18 0 0 0 34 52.64v.01zM34 59a6.39 6.39 0 1 1-6.39 6.39A6.36 6.36 0 0 1 34 59zm0 9.58a3.19 3.19 0 1 0-3.19-3.19A3.18 3.18 0 0 0 34 68.61v-.03zM50 27.1a6.39 6.39 0 1 1-6.39 6.39A6.36 6.36 0 0 1 50 27.1zm0 9.58a3.19 3.19 0 1 0-3.19-3.19A3.18 3.18 0 0 0 50 36.68zm0 6.39a6.39 6.39 0 1 1-6.39 6.39 6.36 6.36 0 0 1 6.39-6.4v.01zm0 9.58a3.19 3.19 0 1 0-3.19-3.19A3.18 3.18 0 0 0 50 52.64v.01zM50 59a6.39 6.39 0 1 1-6.39 6.39A6.36 6.36 0 0 1 50 59zm0 9.58a3.19 3.19 0 1 0-3.19-3.19A3.18 3.18 0 0 0 50 68.61v-.03zm16-41.51a6.39 6.39 0 1 1-6.39 6.39 6.36 6.36 0 0 1 6.31-6.36l.08-.03zm0 9.58a3.19 3.19 0 1 0-3.19-3.19 3.18 3.18 0 0 0 3.11 3.22l.08-.03zm0 6.39a6.39 6.39 0 1 1-6.39 6.39 6.36 6.36 0 0 1 6.31-6.37l.08-.02zm0 9.58a3.19 3.19 0 1 0-3.19-3.19 3.18 3.18 0 0 0 3.11 3.21l.08-.02zm0 6.39a6.39 6.39 0 1 1-6.39 6.39 6.36 6.36 0 0 1 6.31-6.4l.08.01zm0 9.58a3.19 3.19 0 1 0-3.19-3.19 3.18 3.18 0 0 0 3.11 3.21l.08-.02z"/>
        </g>
    </g>
</svg>
