<svg xmlns="http://www.w3.org/2000/svg" xmlns:xlink="http://www.w3.org/1999/xlink" width="66" height="80" viewBox="0 0 66 80">
    <defs>
        <path id="a" d="M0 0h100v80H0z"/>
    </defs>
    <g fill="none" fill-rule="evenodd" transform="translate(-17)">
        <mask id="b" fill="#fff">
            <use xlink:href="#a"/>
        </mask>
        <g fill-rule="nonzero" mask="url(#b)">
            <path fill="#FFF" d="M53.77 32.06V20.49h-7.41v11.7a1.23 1.23 0 0 1-1.3 1.3H33.49v7.41h11.57a1.23 1.23 0 0 1 1.3 1.3v11.58h7.41V42.2a1.23 1.23 0 0 1 1.3-1.3h11.57v-7.54H55.07a1.23 1.23 0 0 1-1.3-1.3z"/>
            <path fill="#5078FA" d="M79 3.66a.88.88 0 0 0-1 .06c-3.77 2.34-9.36 5.07-14.43 5.07A26.6 26.6 0 0 1 50 5.28a27 27 0 0 1-13.65 3.51c-5.07 0-10.66-2.73-14.43-5.07a1 1 0 0 0-.52-.13.92.92 0 0 0-.4.11.88.88 0 0 0-.5.79v47.72a14.79 14.79 0 0 0 8.06 13.13L50 76.27l21.45-11.05a14.64 14.64 0 0 0 8.06-13.13V4.5a1 1 0 0 0-.51-.84zm-9.76 38.41a1.23 1.23 0 0 1-1.3 1.3H56.37v11.58a1.23 1.23 0 0 1-1.3 1.3h-10a1.23 1.23 0 0 1-1.3-1.3V43.37H32.19a1.23 1.23 0 0 1-1.3-1.3v-10a1.23 1.23 0 0 1 1.3-1.3h11.57V19.19a1.23 1.23 0 0 1 1.3-1.3h10a1.23 1.23 0 0 1 1.3 1.3v11.57h11.58a1.4 1.4 0 0 1 1.3 1.3v10.01z"/>
            <path fill="#464646" stroke="#464646" stroke-width=".7" d="M80.3 1.51a3.14 3.14 0 0 0-3.51.13c-2.86 1.82-8.45 4.68-13.13 4.68a23.43 23.43 0 0 1-12.88-3.51 1.41 1.41 0 0 0-1.43 0 24.69 24.69 0 0 1-13 3.38c-4.68 0-10.27-3-13.13-4.68a3.74 3.74 0 0 0-3.51-.13 3.5 3.5 0 0 0-1.83 3.12v47.58a17.23 17.23 0 0 0 9.49 15.47l22 11.31a1.69 1.69 0 0 0 1.3 0l22-11.31a17.38 17.38 0 0 0 9.49-15.47V4.5a3.17 3.17 0 0 0-1.86-2.99zm-.78 50.58a14.64 14.64 0 0 1-8.06 13.13L50 76.27 28.55 65.35a14.79 14.79 0 0 1-8.06-13.13V4.5a.88.88 0 0 1 .51-.8.92.92 0 0 1 .41-.12 1 1 0 0 1 .52.13c3.77 2.34 9.36 5.07 14.43 5.07A27 27 0 0 0 50 5.28a26.6 26.6 0 0 0 13.65 3.51c5.07 0 10.66-2.73 14.43-5.07a.88.88 0 0 1 1-.06 1 1 0 0 1 .48.84l-.04 47.59zM67.94 30.76H56.37V19.19a1.23 1.23 0 0 0-1.3-1.3h-10a1.23 1.23 0 0 0-1.3 1.3v11.57H32.19a1.23 1.23 0 0 0-1.3 1.3v10a1.23 1.23 0 0 0 1.3 1.3h11.57v11.59a1.23 1.23 0 0 0 1.3 1.3h10a1.23 1.23 0 0 0 1.3-1.3V43.37h11.58a1.23 1.23 0 0 0 1.3-1.3v-10a1.4 1.4 0 0 0-1.3-1.31zm-1.3 10.14H55.07a1.23 1.23 0 0 0-1.3 1.3v11.58h-7.41V42.2a1.23 1.23 0 0 0-1.3-1.3H33.49v-7.41h11.57a1.23 1.23 0 0 0 1.3-1.3v-11.7h7.41v11.57a1.23 1.23 0 0 0 1.3 1.3h11.57v7.54z"/>
        </g>
    </g>
</svg>
