<svg xmlns="http://www.w3.org/2000/svg" xmlns:xlink="http://www.w3.org/1999/xlink" width="62" height="80" viewBox="0 0 62 80">
    <defs>
        <path id="a" d="M0 0h100v80H0z"/>
    </defs>
    <g fill="none" fill-rule="evenodd" transform="translate(-19)">
        <mask id="b" fill="#fff">
            <use xlink:href="#a"/>
        </mask>
        <g fill-rule="nonzero" mask="url(#b)">
            <path fill="#5078FA" d="M50 16.36a27.15 27.15 0 0 0-26 19.31 8.8 8.8 0 0 1 4.15-1.14 8.94 8.94 0 0 1 7.27 3.92 8.71 8.71 0 0 1 14.55 0 8.71 8.71 0 0 1 14.55 0 8.94 8.94 0 0 1 7.27-3.92A8.8 8.8 0 0 1 76 35.67a27.15 27.15 0 0 0-26-19.31z"/>
            <path fill="#464646" d="M26.22 0a1.82 1.82 0 0 0-1.48 2.64l3.64 7.27a1.82 1.82 0 1 0 3.24-1.61L28 1a1.82 1.82 0 0 0-1.78-1zM48 0a1.82 1.82 0 0 0-1.48 2.64l3.68 7.27a1.82 1.82 0 1 0 3.24-1.61L49.8 1A1.82 1.82 0 0 0 48 0zm21 0a1.82 1.82 0 0 0-1.48 2.64l3.64 7.27a1.82 1.82 0 1 0 3.19-1.61L70.71 1A1.82 1.82 0 0 0 69 0zM39 5.46a1.82 1.82 0 0 0-1.53 2.64l3.07 6.13a31 31 0 0 0-13.13 8.38l-3.07-6.13a1.811 1.811 0 1 0-3.24 1.62l3.64 7.27c.039.097.085.19.14.28a30.69 30.69 0 0 0-5.8 18 1.82 1.82 0 0 0 3.64 0 5.455 5.455 0 0 1 10.91 0v.34c.025.117.062.23.11.34l.09.17a1.77 1.77 0 0 0 2.67.57l.14-.11c.27-.252.458-.58.54-.94v-.17a1.82 1.82 0 0 0 0-.2 5.455 5.455 0 0 1 10.91 0V74.55a1.82 1.82 0 0 1-3.64 0 1.82 1.82 0 0 0-3.64-.05v.05a5.455 5.455 0 0 0 10.91 0V43.68a5.455 5.455 0 0 1 10.91 0c-.008.235.04.468.14.68l.09.17c.12.212.283.397.48.54l.14.11c.107.068.221.125.34.17l.17.06c.407.11.84.07 1.22-.11l.17-.11.14-.09.14-.11a1.82 1.82 0 0 0 .43-.6l.09-.17v-.17-.17a1.82 1.82 0 0 0 0-.2 5.455 5.455 0 0 1 10.91 0v.34l.06.17.06.17.09.17c.065.111.143.215.23.31l.11.11a1.78 1.78 0 0 0 2.33.14l.14-.11a1.82 1.82 0 0 0 .51-.77v-.17a1.82 1.82 0 0 0 .06-.37 30.86 30.86 0 0 0-14.23-26.14 1.82 1.82 0 0 0-.28-1.05L62.53 9.2a1.811 1.811 0 1 0-3.24 1.62l2 4.12a30 30 0 0 0-17.19-1.59l-3.39-6.87a1.82 1.82 0 0 0-1.76-1l.05-.02zm11 10.93A27.15 27.15 0 0 1 76 35.7a8.8 8.8 0 0 0-4.15-1.14 8.94 8.94 0 0 0-7.27 3.92 8.71 8.71 0 0 0-14.55 0 8.71 8.71 0 0 0-14.55 0 8.94 8.94 0 0 0-7.27-3.92A8.8 8.8 0 0 0 24 35.7a27.15 27.15 0 0 1 26-19.31z"/>
        </g>
    </g>
</svg>
