<svg xmlns="http://www.w3.org/2000/svg" xmlns:xlink="http://www.w3.org/1999/xlink" width="80" height="81" viewBox="0 0 80 81">
    <defs>
        <path id="a" d="M.402.5h100v80h-100z"/>
    </defs>
    <g fill="none" fill-rule="evenodd" transform="translate(-10)">
        <mask id="b" fill="#fff">
            <use xlink:href="#a"/>
        </mask>
        <g mask="url(#b)">
            <path fill="#5485F9" d="M61.672 32.808h26.153S86.287 44.73 75.902 44.73c-10.384 0-14.23-11.923-14.23-11.923zM30.133 78.192h40.77l-4.152-8.461H32.206zM11.672 44.346h26.153S36.287 56.27 25.902 56.27c-10.384 0-14.23-11.923-14.23-11.923z"/>
            <path fill="#464646" fill-rule="nonzero" d="M89.133 31C83.966 19.667 77.8 6 75.466 2.5c-.333-.833-9.5 1.833-16.833 3.667-1.333-3.334-4.667-5.834-8.5-5.5-5 .333-8.167 3.666-9 9.833l-16 3.833c-.333.167-.833.5-1 1l-13 27.834c-.167.166-.167.5-.167.666 0 8 6.5 14.667 14.667 14.667S40.3 52 40.3 43.833c0-.166 0-.5-.167-.666L27.966 17l14-3.5c1.167 2.667 3.667 4.667 6.667 5.167v40.666H43.8c-3.667 0-6.5 3-6.5 7.667h.5c-5.5 0-9.834 4.333-9.834 9.833v2c0 .834.667 1.667 1.667 1.667h41.333c.834 0 1.667-.667 1.667-1.667V77c0-5.5-4.333-9.833-9.833-9.833h.666c-.166-4.834-3-7.667-6.666-7.667h-4.834V18.667c4.834-1.167 7-4.5 7.5-9.5L71.8 6.333 60.133 31c-.167.167-.167.5-.167.667 0 8 6.5 14.666 14.667 14.666S89.3 39.833 89.3 31.667c0-.167 0-.5-.167-.667zm-63.5 24.167c-5.667 0-10.5-4.167-11.167-9.834H36.8c-.667 5.667-5.5 9.834-11.167 9.834zm10.333-13H15.133l10.5-22.334 10.333 22.334zm26.667 28.166c3.667 0 6.5 3 6.5 6.5v.334H31.3v-.334c0-3.666 3-6.5 6.5-6.5h24.833zM56.8 62.667c1.833 0 3.333 1.5 3.333 3.333v1.167H40.466V66c0-1.833 1.5-3.333 3.334-3.333h13zm-6.5-47c-3.334 0-5.834-2.667-5.834-5.834 0-3.166 2.5-6 5.834-6 3.333 0 5.833 2.667 5.833 5.834 0 3.166-2.667 6-5.833 6zm24.333-8L85.133 30H64.3L74.633 7.667zm0 35.5c-5.667 0-10.5-4.167-11.167-9.834h22.5c-.833 5.5-5.5 9.834-11.333 9.834z"/>
        </g>
    </g>
</svg>
