<svg xmlns="http://www.w3.org/2000/svg" xmlns:xlink="http://www.w3.org/1999/xlink" width="58" height="80" viewBox="0 0 58 80">
    <defs>
        <path id="a" d="M0 0h100v80H0z"/>
    </defs>
    <g fill="none" fill-rule="evenodd" transform="translate(-21)">
        <mask id="b" fill="#fff">
            <use xlink:href="#a"/>
        </mask>
        <g fill-rule="nonzero" mask="url(#b)">
            <path fill="#FFF" d="M33.49 47.73a1.16 1.16 0 0 1 1.28.46A9.2 9.2 0 0 0 42.33 52a8.92 8.92 0 0 0 5.35-1.74 1.22 1.22 0 0 1 1.51.12 5.6 5.6 0 0 0 3.72 1.51A5.16 5.16 0 0 0 58 46.8a5.09 5.09 0 0 0-5.11-5.11h-.12a1.13 1.13 0 0 1-1.16-.93 9.43 9.43 0 0 0-9.18-7.56 9.2 9.2 0 0 0-7.54 3.8 1.1 1.1 0 0 1-1.28.46 5.17 5.17 0 0 0-4 .23h-.12v9.81a5.17 5.17 0 0 0 4 .23zM49.88 9.49a20.31 20.31 0 0 0-19.64 15.34h39.29A20.31 20.31 0 0 0 49.88 9.49zM55.29 18H44.71a1.16 1.16 0 0 1 0-2.32h10.58c.64 0 1.16.52 1.16 1.16A1.1 1.1 0 0 1 55.29 18z"/>
            <path fill="#FFF" d="M48.49 76.68h2.91c13.212-.033 23.913-10.738 23.94-23.95V28.2c0-13.807-11.193-25-25-25h-.7a25.05 25.05 0 0 0-25 25.11v24.42c.027 13.177 10.673 23.868 23.85 23.95zM27.33 29.95a22.67 22.67 0 1 1 45.33 0v20.92c-.022 11.994-9.736 21.712-21.73 21.74h-1.86c-11.998-.022-21.718-9.742-21.74-21.74V29.95z"/>
            <path fill="#5078FA" d="M49.38 70.28h1.86c10.715-.017 19.398-8.695 19.42-19.41V29.95a22.58 22.58 0 0 0-.23-2.79H30.2a22.57 22.57 0 0 0-.2 2.79v5.35a7.13 7.13 0 0 1 3.84-.23 11.54 11.54 0 0 1 9-4.18A11.72 11.72 0 0 1 54 39.36a7.46 7.46 0 0 1-.7 14.88 7.3 7.3 0 0 1-4.65-1.63 12 12 0 0 1-5.93 1.63 11.54 11.54 0 0 1-9-4.18 8.59 8.59 0 0 1-3.72-.24v1c-.006 10.719 8.662 19.421 19.38 19.46z"/>
            <path fill="#464646" stroke="#464646" d="M50 7.28a22.62 22.62 0 0 0-22.67 22.67v20.92c.022 11.998 9.742 21.718 21.74 21.74h1.86c11.998-.022 21.718-9.742 21.74-21.74V29.95A22.62 22.62 0 0 0 50 7.28zM29.66 37.73a5.17 5.17 0 0 1 4-.23 1.1 1.1 0 0 0 1.23-.5 9.2 9.2 0 0 1 7.56-3.84 9.43 9.43 0 0 1 9.18 7.56c.1.557.595.954 1.16.93h.12A5.09 5.09 0 0 1 58 46.8a5.16 5.16 0 0 1-5.11 5.11 5.6 5.6 0 0 1-3.72-1.51 1.22 1.22 0 0 0-1.51-.12A8.92 8.92 0 0 1 42.33 52a9.2 9.2 0 0 1-7.56-3.84 1.16 1.16 0 0 0-1.28-.46 5.17 5.17 0 0 1-4-.23v-9.74h.17zm40.45-10.57c.134.924.211 1.856.23 2.79v20.92c-.022 10.71-8.7 19.388-19.41 19.41h-1.86c-10.71-.022-19.388-8.7-19.41-19.41v-1a8.59 8.59 0 0 0 3.84.23 11.54 11.54 0 0 0 9 4.18 12 12 0 0 0 5.93-1.63A7.3 7.3 0 0 0 53 54.24a7.46 7.46 0 0 0 .7-14.88 11.72 11.72 0 0 0-11.28-8.49 11.54 11.54 0 0 0-9 4.18 7.13 7.13 0 0 0-3.84.23v-5.33a22.57 22.57 0 0 1 .23-2.79h40.3zm-39.87-2.33a20.25 20.25 0 0 1 39.29 0H30.24z"/>
            <path fill="#464646" stroke="#464646" d="M77.67 28.32C77.648 13.24 65.43 1.022 50.35 1h-.7a27.21 27.21 0 0 0-27.32 27.32v24.41C22.34 67.191 34.029 78.928 48.49 79h2.91a26.24 26.24 0 0 0 26.27-26.27V28.32zm-2.33 24.41c-.028 13.216-10.734 23.922-23.95 23.95h-2.9c-13.169-.093-23.803-10.78-23.83-23.95V28.32a25.05 25.05 0 0 1 25-25.11h.7c13.807 0 25 11.193 25 25l-.02 24.52z"/>
            <path fill="#464646" stroke="#464646" d="M55.29 15.65H44.71a1.16 1.16 0 1 0 0 2.32h10.58a1.1 1.1 0 0 0 1.16-1.16c0-.64-.52-1.16-1.16-1.16z"/>
        </g>
    </g>
</svg>
