<svg xmlns="http://www.w3.org/2000/svg" width="84" height="87" viewBox="0 0 84 87">
    <g fill="none" fill-rule="evenodd" stroke="#464646">
        <path fill="#5078FA" stroke-width="3.772" d="M51.615 13.8a12.225 12.225 0 0 0-8.64 3.552l-.96.947-.955-.947c-4.684-4.648-12.186-4.673-16.978-.2a.91.91 0 0 0-.305.196 12.046 12.046 0 0 0 .004 17.137l1.598 1.586 15.994 15.866c.355.35.93.35 1.286 0l15.994-15.866 1.601-1.583a12.04 12.04 0 0 0 .004-17.133 12.179 12.179 0 0 0-4.403-2.786.916.916 0 0 0-.455-.162 12.383 12.383 0 0 0-3.785-.607z"/>
        <path fill="#464646" fill-rule="nonzero" d="M9.011 1.398C4.593 1.398 1 4.998 1 9.426v45.88c0 4.428 3.593 8.029 8.011 8.029h13.714l-2.218 21.649c-.12.952 1.31 1.629 1.967.932l22.603-22.581h30.312c4.418 0 8.011-3.601 8.011-8.03V9.427c0-4.428-3.593-8.028-8.011-8.028H9.01zm0 2.294H75.39c3.19 0 5.722 2.537 5.722 5.734v45.88c0 3.197-2.532 5.735-5.722 5.735H44.612a1.136 1.136 0 0 0-.823.322L23.118 82.045l2.038-19.75c.06-.635-.507-1.257-1.144-1.254h-15c-3.19 0-5.723-2.538-5.723-5.735V9.426c0-3.197 2.532-5.734 5.722-5.734z"/>
    </g>
</svg>
