<svg xmlns="http://www.w3.org/2000/svg" xmlns:xlink="http://www.w3.org/1999/xlink" width="92" height="80" viewBox="0 0 92 80">
    <defs>
        <path id="a" d="M0 0h100v80H0z"/>
    </defs>
    <g fill="none" fill-rule="evenodd" transform="translate(-4)">
        <mask id="b" fill="#fff">
            <use xlink:href="#a"/>
        </mask>
        <g fill-rule="nonzero" mask="url(#b)">
            <path fill="#5078FA" d="M16.23 9.807c-1.43 0-2.59 1.146-2.59 2.558 0 1.413 1.16 2.558 2.59 2.558 1.42-.03 2.568-1.155 2.61-2.558a2.522 2.522 0 0 0-.76-1.821 2.587 2.587 0 0 0-1.85-.737zM78.55 40.494c-2.689 0-4.874 2.144-4.89 4.8a4.829 4.829 0 0 0 2.998 4.483 4.935 4.935 0 0 0 5.339-1.028 4.786 4.786 0 0 0 1.074-5.267 4.89 4.89 0 0 0-4.521-2.988z"/>
            <path fill="#FFF" d="M24.55 12.691c-.022-4.481-3.482-8.215-8-8.632h-.49a8.445 8.445 0 0 0-6.002 2.406 8.235 8.235 0 0 0-2.478 5.91v.316c.04 1.062.32 2.101.82 3.042l7.5 14.884 7.83-14.874c.52-.936.802-1.984.82-3.052zm-8.32 5.274c-3.215-.021-5.805-2.609-5.79-5.784.015-3.175 2.629-5.739 5.843-5.731 3.215.007 5.817 2.582 5.817 5.757 0 1.534-.62 3.005-1.722 4.086a5.868 5.868 0 0 1-4.148 1.672zM79.53 31.714h-1a13.89 13.89 0 0 0-9.776 3.96 13.546 13.546 0 0 0-4.074 9.63v.484A11.355 11.355 0 0 0 66 50.904l12.55 23.98 12.56-23.98a11.354 11.354 0 0 0 1.31-5.116c.12-7.31-5.514-13.462-12.89-14.074zm-.98 21.62c-4.459-.039-8.046-3.633-8.02-8.036.026-4.404 3.654-7.957 8.113-7.945 4.459.013 8.067 3.586 8.067 7.99a7.852 7.852 0 0 1-2.367 5.702 8.053 8.053 0 0 1-5.793 2.288z"/>
            <path fill="#464646" stroke="#464646" stroke-width=".3" d="M78.55 37.314c-4.459.038-8.046 3.632-8.02 8.035.026 4.404 3.654 7.957 8.113 7.944 4.459-.012 8.067-3.586 8.067-7.99a7.852 7.852 0 0 0-2.367-5.7 8.053 8.053 0 0 0-5.793-2.29zm0 12.84a4.822 4.822 0 0 1-3.477-1.375 4.7 4.7 0 0 1-1.413-3.426 4.8 4.8 0 0 1 1.422-3.434 4.921 4.921 0 0 1 3.468-1.425 4.875 4.875 0 0 1 4.392 2.332 4.75 4.75 0 0 1 0 4.925 4.875 4.875 0 0 1-4.392 2.333v.07z"/>
            <path fill="#464646" stroke="#464646" stroke-width=".3" d="M79.69 28.642a17.008 17.008 0 0 0-12.736 4.428 16.576 16.576 0 0 0-5.374 12.234v.484a13.476 13.476 0 0 0 1.64 6.558L75.94 76.8H16.06a2.312 2.312 0 0 1-2.28-1.442 2.397 2.397 0 0 1 .49-2.558l31.81-30.696a5.629 5.629 0 0 0 1.31-6.074c-.856-2.11-2.919-3.5-5.22-3.516H18.84l8-15.19A9.145 9.145 0 0 0 28 12.84C28.052 6.606 23.178 1.41 16.88.988a11.849 11.849 0 0 0-8.812 3.085 11.55 11.55 0 0 0-3.748 8.46v.307a8.343 8.343 0 0 0 1.14 4.474l9.3 17.254c0 .087.072.158.16.158 0 .158.16.158.16.316l.33.316c.16 0 .16.158.33.158H42c.963.054 1.827.6 2.28 1.442.353.87.166 1.862-.48 2.548L12 70.41a5.629 5.629 0 0 0-1.31 6.074c.855 2.106 2.912 3.495 5.21 3.516h62.65a1.65 1.65 0 0 0 1.45-.988l14-26.666a13.475 13.475 0 0 0 1.63-6.558c.14-8.99-6.86-16.518-15.94-17.146zM8.4 15.723c-.5-.94-.78-1.98-.82-3.042v-.316a8.235 8.235 0 0 1 2.478-5.91A8.445 8.445 0 0 1 16.06 4.05h.49c4.518.417 7.978 4.151 8 8.632a6.515 6.515 0 0 1-.82 3.042L15.9 30.617 8.4 15.723zm82.71 35.18L78.55 74.885 66 50.904a11.354 11.354 0 0 1-1.31-5.116v-.484a13.546 13.546 0 0 1 4.077-9.633 13.89 13.89 0 0 1 9.783-3.957h1c7.368.622 12.991 6.77 12.87 14.074a11.354 11.354 0 0 1-1.31 5.116z"/>
            <path fill="#464646" stroke="#464646" stroke-width=".3" d="M16.23 6.45c-3.215.021-5.805 2.609-5.79 5.784.015 3.174 2.629 5.738 5.843 5.731 3.215-.007 5.817-2.583 5.817-5.758 0-1.534-.62-3.004-1.722-4.085a5.868 5.868 0 0 0-4.148-1.673zm0 8.473c-1.428-.01-2.577-1.16-2.57-2.57.007-1.41 1.169-2.55 2.597-2.546 1.427.004 2.583 1.148 2.583 2.558-.042 1.403-1.19 2.528-2.61 2.558z"/>
        </g>
    </g>
</svg>
