<svg xmlns="http://www.w3.org/2000/svg" width="86" height="20" viewBox="0 0 86 20">
    <path fill="#5078FA" fill-rule="evenodd" d="M17.762.315H34.37v3.533h-6.276v15.836h-4.089V3.848h-6.244V.315zM49.4 11.61H36.608l1.206-3.533H49.4v3.533zm0-7.76H39.26L40.467.315H49.4V3.85zm0 15.835H33.858l1.206-3.533H49.4v3.533zm-45.216-5.52c.539 1.703 1.965 2.492 3.867 2.492 1.966 0 3.265-.883 3.265-2.43 0-1.166-.698-1.797-2.377-2.175l-3.487-.79C2.662 10.632.507 9.149.507 5.963.507 2.46 3.423 0 7.512 0c4.438 0 7.005 2.334 7.64 5.615h-4.026c-.444-1.293-1.554-2.303-3.582-2.303-1.838 0-3.075.883-3.075 2.271 0 1.104.73 1.767 2.187 2.114l3.55.82c3.17.726 5.104 2.524 5.104 5.458 0 3.753-3.107 6.025-7.227 6.025C3.741 20 .666 17.855 0 14.164h4.184zm70.69 0c.54 1.703 1.966 2.492 3.868 2.492 1.965 0 3.264-.883 3.264-2.43 0-1.166-.697-1.797-2.377-2.175l-3.487-.79c-2.789-.63-4.944-2.113-4.944-5.299C71.198 2.46 74.114 0 78.203 0c4.437 0 7.005 2.334 7.639 5.615h-4.026c-.444-1.293-1.553-2.303-3.582-2.303-1.838 0-3.074.883-3.074 2.271 0 1.104.729 1.767 2.187 2.114l3.55.82c3.17.726 5.103 2.524 5.103 5.458C86 17.728 82.894 20 78.773 20c-4.342 0-7.417-2.145-8.083-5.836h4.184zm-17.317-1.199v6.72h-4.025V.314h7.924c4.12 0 6.847 2.209 6.847 6.341 0 4.1-2.727 6.31-6.847 6.31h-3.899zm3.646-9.211h-3.646v5.773h3.646c2.092 0 3.106-1.2 3.106-2.87 0-1.736-1.014-2.903-3.106-2.903z"/>
</svg>
